<svg width="108" height="92" viewBox="0 0 108 92" fill="none" xmlns="http://www.w3.org/2000/svg">
<path d="M21.1133 12.4495L2 45.367L27.7615 90.6881H41.5963M21.1133 12.4495L27.7615 1H80.2385L99.3519 33.9174M21.1133 12.4495H73.0826L85.0092 32.9633L78.4425 44.4128M41.5963 65.4037H66.4037L78.4425 44.4128M41.5963 65.4037L29.6697 45.367L41.5963 24.8532M41.5963 65.4037L49.2294 78.7615H73.0826L99.3519 33.9174M41.5963 24.8532H66.4037L78.4425 44.4128M41.5963 24.8532H27.7615L15.8349 45.367L41.5963 90.6881M99.3519 33.9174L106 45.367L80.2385 90.6881H41.5963" stroke="white" stroke-width="2"/>
</svg>
