<svg width="108" height="102" viewBox="0 0 108 102" fill="none" xmlns="http://www.w3.org/2000/svg">
<path d="M61.964 7.49953L54 1.68799L10.4324 33.4805M61.964 7.49953L106 39.6339L102.797 49.4718M61.964 7.49953L21.6757 36.8231L24.8837 46.661M35.7297 79.9222H71.3333M35.7297 79.9222L24.8837 46.661M35.7297 79.9222H24.8837L10.4324 33.4805M71.3333 79.9222L82.5766 46.661M71.3333 79.9222L68.5225 89.9943H18.3964M82.5766 46.661L54 26.0483M82.5766 46.661L91.009 52.7511L76.018 100.066M54 26.0483L24.8837 46.661M54 26.0483L61.964 19.9583L102.797 49.4718M102.797 49.4718L86.3243 100.066H76.018M76.018 100.066H21.6757L18.3964 89.9943M18.3964 89.9943L2 39.6339L10.4324 33.4805" stroke="white" stroke-width="2"/>
</svg>
