<svg width="23" height="84" viewBox="0 0 23 84" fill="none" xmlns="http://www.w3.org/2000/svg">
<path d="M22.8252 83.1294L0.745193 83.1294L0.745193 81.1794L18.7152 69.6594L0.745193 69.6594L0.745193 67.2894L22.8252 67.2894L22.8252 69.2394L4.85519 80.7594L22.8252 80.7594L22.8252 83.1294ZM22.8252 63.0709L5.18519 63.0709C4.32519 63.0709 3.61519 62.9509 3.05519 62.7109C2.47519 62.4509 2.02519 62.1109 1.70519 61.6909C1.36519 61.2709 1.12519 60.8009 0.985193 60.2809C0.825192 59.7609 0.745192 59.2409 0.745192 58.7209C0.765193 57.8409 0.785193 56.8909 0.805193 55.8709C0.825193 54.8309 0.855193 53.7709 0.895194 52.6909C0.915193 51.5909 0.965193 50.5209 1.04519 49.4809L2.93519 49.4809L2.93519 58.1509C2.93519 58.9509 3.15519 59.5709 3.59519 60.0109C4.03519 60.4509 4.68519 60.6709 5.54519 60.6709L11.2752 60.6709L11.4252 50.8009L13.2552 50.8009L13.4052 60.6709L22.8252 60.6709L22.8252 63.0709ZM22.8252 42.5094L2.87519 42.5094L4.10519 47.0394L2.57519 47.0394L0.535192 42.2994L0.535192 40.1094L22.8252 40.1094L22.8252 42.5094ZM22.8852 29.7202C22.8852 30.7802 22.7052 31.7302 22.3452 32.5702C21.9652 33.3902 21.3952 34.0402 20.6352 34.5202C19.8552 34.9802 18.8552 35.2102 17.6352 35.2102L5.93519 35.2102C4.75519 35.2102 3.77519 34.9802 2.99519 34.5202C2.19519 34.0402 1.59519 33.3902 1.19519 32.5702C0.775192 31.7302 0.565192 30.7802 0.565191 29.7202L0.565191 25.4302C0.565191 24.1902 0.795191 23.1802 1.25519 22.4002C1.69519 21.6202 2.31519 21.0502 3.11519 20.6902C3.91519 20.3102 4.85519 20.1202 5.93519 20.1202L17.6352 20.1202C19.4552 20.1202 20.7852 20.6102 21.6252 21.5902C22.4652 22.5502 22.8852 23.8302 22.8852 25.4302L22.8852 29.7202ZM20.7552 29.2702L20.7552 25.9702C20.7552 24.7502 20.4552 23.8702 19.8552 23.3302C19.2352 22.7902 18.3952 22.5202 17.3352 22.5202L6.11519 22.5202C4.97519 22.5202 4.12519 22.8102 3.56519 23.3902C3.00519 23.9502 2.72519 24.7802 2.72519 25.8802L2.72519 29.3302C2.72519 30.4102 3.02519 31.2602 3.62519 31.8802C4.20519 32.5002 5.03519 32.8102 6.11519 32.8102L17.3352 32.8102C18.4752 32.8102 19.3352 32.5002 19.9152 31.8802C20.4752 31.2402 20.7552 30.3702 20.7552 29.2702ZM22.8252 2.86203L0.74519 16.782L0.74519 14.172L22.8252 0.252029L22.8252 2.86203ZM22.8252 16.692L11.2752 9.49203L13.3152 8.29203L22.8252 14.082L22.8252 16.692ZM12.5952 7.48203L10.4352 8.62203L0.74519 2.80203L0.74519 0.192031L12.5952 7.48203Z" fill="#FFFCED"/>
</svg>
