<svg width="33" height="32" viewBox="0 0 33 32" fill="none" xmlns="http://www.w3.org/2000/svg">
<g filter="url(#filter0_b_529_4244)">
<circle cx="16.3408" cy="16" r="16" fill="#54475F" fill-opacity="0.4"/>
<circle cx="16.3408" cy="16" r="15.5" stroke="#755E89" stroke-opacity="0.24"/>
</g>
<path d="M24.8123 20.3792L22.2921 11.4858C22.2437 11.3059 22.157 11.1402 22.0388 11.0013C21.9206 10.8624 21.774 10.754 21.6102 10.6845H21.5657L21.6102 10.6687C20.7832 10.3176 19.9271 10.0493 19.0529 9.8674C18.9765 9.85139 18.8979 9.85149 18.8215 9.86771C18.7451 9.88392 18.6725 9.91592 18.6078 9.96188C18.5431 10.0078 18.4876 10.0669 18.4444 10.1356C18.4012 10.2043 18.3713 10.2814 18.3562 10.3623C18.34 10.4429 18.339 10.526 18.3534 10.6069C18.3678 10.6878 18.3973 10.7649 18.44 10.8336C18.4828 10.9023 18.5381 10.9614 18.6026 11.0072C18.6671 11.0531 18.7395 11.0849 18.8157 11.1008C19.1493 11.1716 19.4754 11.258 19.7942 11.3522C19.9116 11.4168 20.0052 11.5212 20.0602 11.6487C20.1152 11.7761 20.1285 11.9195 20.0978 12.0558C20.0671 12.1922 19.9943 12.3138 19.8909 12.4013C19.7876 12.4887 19.6596 12.5371 19.5273 12.5386H19.468C18.3258 12.2228 17.1499 12.0644 15.9694 12.0672C14.8167 12.0635 13.6683 12.2167 12.5524 12.5228C12.4103 12.5626 12.2595 12.545 12.129 12.4736C11.9985 12.4022 11.8977 12.282 11.846 12.1363C11.7943 11.9905 11.7955 11.8297 11.8493 11.6849C11.9031 11.54 12.0057 11.4215 12.1373 11.3522H12.1447C12.4634 11.258 12.7895 11.1716 13.1231 11.1008C13.1995 11.0849 13.2722 11.0531 13.337 11.0073C13.4019 10.9616 13.4576 10.9027 13.5009 10.8341C13.5443 10.7656 13.5745 10.6886 13.5898 10.6076C13.6051 10.5267 13.6052 10.4433 13.5901 10.3623C13.5579 10.1998 13.4669 10.057 13.3368 9.96453C13.2066 9.87205 13.0474 9.83719 12.8933 9.8674C12.016 10.0533 11.1573 10.3269 10.3287 10.6845C10.1648 10.754 10.0182 10.8624 9.9 11.0013C9.7818 11.1402 9.69516 11.3059 9.64673 11.4858L7.12655 20.3792C7.06117 20.6117 7.06067 20.8593 7.12512 21.0921C7.18957 21.3249 7.31621 21.533 7.48975 21.6912C7.55794 21.7608 7.6297 21.8264 7.70471 21.8876H7.71212C8.91291 22.9247 10.4917 23.7182 12.2707 24.1738C12.3162 24.1893 12.3637 24.1972 12.4115 24.1974C12.5581 24.1999 12.7004 24.1447 12.8109 24.0425C12.9213 23.9403 12.9921 23.7983 13.0097 23.644C13.0272 23.4897 12.9901 23.334 12.9057 23.207C12.8212 23.0799 12.6953 22.9905 12.5524 22.9561C11.7526 22.7513 10.9751 22.4591 10.2323 22.084C10.1306 21.9831 10.0658 21.8474 10.0491 21.7008C10.0323 21.5542 10.0649 21.406 10.1409 21.2823C10.217 21.1586 10.3317 21.0672 10.465 21.0242C10.5982 20.9811 10.7415 20.9892 10.8698 21.047C12.2781 21.7069 14.0496 22.1233 15.9694 22.1233C17.8892 22.1233 19.6607 21.7069 21.0691 21.047C21.1973 20.9892 21.3406 20.9811 21.4739 21.0242C21.6071 21.0672 21.7219 21.1586 21.7979 21.2823C21.874 21.406 21.9065 21.5542 21.8898 21.7008C21.8731 21.8474 21.8082 21.9831 21.7065 22.084C20.9638 22.4591 20.1862 22.7513 19.3865 22.9561C19.2435 22.9905 19.1176 23.0799 19.0332 23.207C18.9487 23.334 18.9117 23.4897 18.9292 23.644C18.9467 23.7983 19.0175 23.9403 19.128 24.0425C19.2384 24.1447 19.3807 24.1999 19.5273 24.1974C19.5751 24.1972 19.6226 24.1893 19.6682 24.1738C21.4471 23.7182 23.0259 22.9247 24.2267 21.8876H24.2341C24.3091 21.8264 24.3809 21.7608 24.4491 21.6912C24.6226 21.533 24.7493 21.3249 24.8137 21.0921C24.8782 20.8593 24.8777 20.6117 24.8123 20.3792ZM13.5975 19.295C13.4216 19.295 13.2496 19.2397 13.1033 19.1361C12.957 19.0326 12.843 18.8853 12.7757 18.713C12.7084 18.5408 12.6908 18.3512 12.7251 18.1683C12.7594 17.9855 12.8441 17.8175 12.9685 17.6856C13.0929 17.5538 13.2514 17.464 13.424 17.4276C13.5965 17.3912 13.7753 17.4099 13.9379 17.4813C14.1004 17.5526 14.2393 17.6735 14.3371 17.8285C14.4348 17.9835 14.487 18.1658 14.487 18.3523C14.487 18.6023 14.3932 18.8421 14.2264 19.0189C14.0596 19.1957 13.8334 19.295 13.5975 19.295ZM18.3414 19.295C18.1654 19.295 17.9935 19.2397 17.8472 19.1361C17.7009 19.0326 17.5869 18.8853 17.5196 18.713C17.4523 18.5408 17.4346 18.3512 17.469 18.1683C17.5033 17.9855 17.588 17.8175 17.7124 17.6856C17.8368 17.5538 17.9953 17.464 18.1678 17.4276C18.3404 17.3912 18.5192 17.4099 18.6817 17.4813C18.8443 17.5526 18.9832 17.6735 19.0809 17.8285C19.1787 17.9835 19.2308 18.1658 19.2308 18.3523C19.2308 18.6023 19.1371 18.8421 18.9703 19.0189C18.8035 19.1957 18.5773 19.295 18.3414 19.295Z" fill="#765F8C"/>
<defs>
<filter id="filter0_b_529_4244" x="-93.6592" y="-94" width="220" height="220" filterUnits="userSpaceOnUse" color-interpolation-filters="sRGB">
<feFlood flood-opacity="0" result="BackgroundImageFix"/>
<feGaussianBlur in="BackgroundImage" stdDeviation="47"/>
<feComposite in2="SourceAlpha" operator="in" result="effect1_backgroundBlur_529_4244"/>
<feBlend mode="normal" in="SourceGraphic" in2="effect1_backgroundBlur_529_4244" result="shape"/>
</filter>
</defs>
</svg>
