<svg width="33" height="32" viewBox="0 0 33 32" fill="none" xmlns="http://www.w3.org/2000/svg">
<g filter="url(#filter0_b_529_4239)">
<circle cx="16.3408" cy="16" r="16" fill="#54475F" fill-opacity="0.4"/>
<circle cx="16.3408" cy="16" r="15.5" stroke="#755E89" stroke-opacity="0.24"/>
</g>
<path d="M19.4208 9H13.2608C12.2212 9 11.2241 9.41285 10.489 10.1477C9.75382 10.8826 9.34082 11.8793 9.34082 12.9186V19.0764C9.34082 20.1156 9.75382 21.1123 10.489 21.8472C11.2241 22.5821 12.2212 22.9949 13.2608 22.9949H19.4208C20.4605 22.9949 21.4575 22.5821 22.1927 21.8472C22.9278 21.1123 23.3408 20.1156 23.3408 19.0764V12.9186C23.3408 11.8793 22.9278 10.8826 22.1927 10.1477C21.4575 9.41285 20.4605 9 19.4208 9ZM16.3408 19.3563C15.6763 19.3563 15.0267 19.1593 14.4741 18.7902C13.9216 18.4211 13.4909 17.8966 13.2366 17.2828C12.9823 16.6691 12.9157 15.9937 13.0454 15.3422C13.175 14.6907 13.495 14.0922 13.9649 13.6225C14.4348 13.1527 15.0335 12.8328 15.6853 12.7032C16.3371 12.5736 17.0127 12.6401 17.6266 12.8944C18.2406 13.1486 18.7654 13.5791 19.1346 14.1314C19.5038 14.6838 19.7008 15.3332 19.7008 15.9975C19.7008 16.8883 19.3468 17.7426 18.7167 18.3725C18.0866 19.0024 17.2319 19.3563 16.3408 19.3563ZM19.9808 13.1985C19.8147 13.1985 19.6523 13.1492 19.5141 13.057C19.376 12.9647 19.2683 12.8336 19.2048 12.6801C19.1412 12.5267 19.1245 12.3579 19.157 12.195C19.1894 12.0321 19.2694 11.8825 19.3869 11.765C19.5043 11.6476 19.654 11.5676 19.8169 11.5352C19.9799 11.5028 20.1488 11.5195 20.3023 11.583C20.4558 11.6466 20.587 11.7542 20.6793 11.8923C20.7716 12.0304 20.8208 12.1927 20.8208 12.3588C20.8208 12.5815 20.7323 12.7951 20.5748 12.9525C20.4173 13.11 20.2036 13.1985 19.9808 13.1985Z" fill="#765F8C"/>
<defs>
<filter id="filter0_b_529_4239" x="-93.6592" y="-94" width="220" height="220" filterUnits="userSpaceOnUse" color-interpolation-filters="sRGB">
<feFlood flood-opacity="0" result="BackgroundImageFix"/>
<feGaussianBlur in="BackgroundImage" stdDeviation="47"/>
<feComposite in2="SourceAlpha" operator="in" result="effect1_backgroundBlur_529_4239"/>
<feBlend mode="normal" in="SourceGraphic" in2="effect1_backgroundBlur_529_4239" result="shape"/>
</filter>
</defs>
</svg>
