<svg width="33" height="32" viewBox="0 0 33 32" fill="none" xmlns="http://www.w3.org/2000/svg">
<g filter="url(#filter0_b_529_4249)">
<circle cx="16.3408" cy="16" r="16" fill="#54475F" fill-opacity="0.4"/>
<circle cx="16.3408" cy="16" r="15.5" stroke="#755E89" stroke-opacity="0.24"/>
</g>
<path d="M25.1743 12.3243L22.9629 14.8327C22.5236 20.6576 18.2034 25.1826 13.0411 25.1826C11.9794 25.1826 11.1007 24.991 10.4343 24.616C9.8998 24.3076 9.68013 23.9826 9.62155 23.8826C9.57309 23.7988 9.54186 23.7037 9.53019 23.6043C9.51852 23.5049 9.52672 23.4037 9.55416 23.3084C9.58161 23.2131 9.62761 23.126 9.68872 23.0538C9.74983 22.9815 9.82449 22.9258 9.90713 22.891C9.92177 22.8826 11.6499 22.1326 12.7702 20.691C12.0754 20.128 11.4647 19.4414 10.9615 18.6576C9.95838 17.1077 8.89664 14.416 9.53369 10.3994C9.55371 10.2799 9.6017 10.1689 9.67259 10.078C9.74348 9.98702 9.83463 9.91956 9.93642 9.88269C10.0385 9.84464 10.1479 9.83928 10.2525 9.86721C10.3571 9.89513 10.4529 9.95527 10.5295 10.041C10.5515 10.0744 12.9898 12.8077 15.9701 13.691V13.1827C15.9729 12.6541 16.0673 12.1314 16.2477 11.6443C16.4281 11.1572 16.691 10.7153 17.0215 10.3439C17.3519 9.97245 17.7434 9.67873 18.1736 9.47949C18.6038 9.28025 19.0643 9.1794 19.5287 9.1827C20.1383 9.19259 20.7353 9.38201 21.2614 9.73251C21.7875 10.083 22.2249 10.5826 22.5309 11.1827H24.7569C24.8726 11.1823 24.9857 11.2208 25.0822 11.2935C25.1786 11.3662 25.254 11.4697 25.2988 11.591C25.341 11.7142 25.3517 11.8484 25.3297 11.9782C25.3076 12.1079 25.2538 12.228 25.1743 12.3243Z" fill="#765F8C"/>
<defs>
<filter id="filter0_b_529_4249" x="-93.6592" y="-94" width="220" height="220" filterUnits="userSpaceOnUse" color-interpolation-filters="sRGB">
<feFlood flood-opacity="0" result="BackgroundImageFix"/>
<feGaussianBlur in="BackgroundImage" stdDeviation="47"/>
<feComposite in2="SourceAlpha" operator="in" result="effect1_backgroundBlur_529_4249"/>
<feBlend mode="normal" in="SourceGraphic" in2="effect1_backgroundBlur_529_4249" result="shape"/>
</filter>
</defs>
</svg>
