<svg width="1093" height="768" viewBox="0 0 1093 768" fill="none" xmlns="http://www.w3.org/2000/svg">
<g opacity="0.7" filter="url(#filter0_f_802_203)">
<ellipse cx="546.5" cy="384" rx="346.5" ry="184" fill="#6041B0"/>
</g>
<g opacity="0.7" filter="url(#filter1_f_802_203)">
<ellipse cx="546.5" cy="289" rx="346.5" ry="184" fill="#A07CFF"/>
</g>
<path d="M541.963 446L545.358 451.478C545.735 452.108 546.011 452.738 546.209 453.392L546.243 453.507H547.784C547.947 452.845 548.239 452.209 548.612 451.573L548.668 451.478L552.064 446H556.943L552.549 452.812L552.506 452.88L552.422 453.013C552.409 453.035 552.396 453.057 552.382 453.078L552.306 453.205C552.231 453.331 552.163 453.45 552.101 453.566L552.041 453.679C551.743 454.259 551.607 454.725 551.607 455.203C551.607 455.842 551.843 456.507 552.464 457.49L552.549 457.623L553.808 459.578L556.007 458.717C556.083 458.688 556.157 458.659 556.228 458.63L556.369 458.572C556.415 458.553 556.46 458.533 556.504 458.514L556.634 458.457C556.74 458.41 556.84 458.363 556.935 458.316L557.047 458.259C557.594 457.976 557.961 457.691 558.225 457.35L558.251 457.316C558.515 456.962 558.672 456.544 558.774 455.982L558.795 455.863C558.811 455.763 558.826 455.658 558.839 455.548L558.855 455.414C558.858 455.391 558.86 455.368 558.863 455.345L558.877 455.203L558.89 455.056L558.902 454.904L558.908 454.826L559.486 446.814L563.433 449.609L562.876 455.985C562.801 456.711 562.644 457.379 562.409 458.021L562.367 458.134L563.614 459.016C564.145 458.574 564.766 458.227 565.451 457.926L565.554 457.881L571.605 455.394L575.552 458.189L567.888 461.183L567.741 461.243L567.599 461.301L567.464 461.359C567.441 461.368 567.419 461.378 567.398 461.387L567.27 461.444C566.497 461.794 566.021 462.126 565.684 462.579C565.324 463.061 565.117 463.68 565.018 464.696L565.004 464.844C565 464.894 564.996 464.946 564.992 464.998L564.826 467.379L567.203 467.961L567.356 467.997L567.505 468.031L567.649 468.062C567.672 468.067 567.696 468.072 567.719 468.076L567.856 468.103C567.879 468.107 567.901 468.112 567.923 468.115L568.054 468.138C568.782 468.258 569.314 468.242 569.785 468.093C570.263 467.942 570.679 467.65 571.164 467.167L571.258 467.072L571.355 466.971L571.454 466.865C571.47 466.847 571.487 466.829 571.504 466.81L571.606 466.697L571.711 466.579L571.819 466.455L577.118 460.304L578.626 464.826L574.329 469.666C573.831 470.21 573.301 470.66 572.724 471.045L572.622 471.113L573.098 472.541C573.794 472.487 574.506 472.561 575.242 472.71L575.352 472.733L581.748 474.187L583.255 478.709L575.249 476.742L575.091 476.705C575.065 476.699 575.039 476.693 575.014 476.687L574.863 476.654C574.814 476.643 574.766 476.633 574.718 476.623L574.578 476.596C574.555 476.592 574.532 476.587 574.509 476.583L574.375 476.56C573.652 476.44 573.122 476.451 572.624 476.608C571.987 476.81 571.399 477.248 570.606 478.168L569.034 480L570.606 481.832L570.708 481.95L570.808 482.062L570.906 482.17C570.922 482.187 570.938 482.204 570.954 482.222L571.049 482.322C571.08 482.354 571.111 482.386 571.142 482.417L571.233 482.508C571.716 482.979 572.132 483.256 572.574 483.405L572.615 483.418C573.113 483.576 573.648 483.572 574.375 483.444L574.509 483.42C574.532 483.416 574.555 483.411 574.578 483.407L574.719 483.378C574.743 483.373 574.767 483.368 574.791 483.363L574.939 483.33L575.092 483.295L575.249 483.258L583.247 481.317L581.739 485.839L575.343 487.293C574.612 487.448 573.912 487.509 573.212 487.49L573.089 487.486L572.613 488.914C573.209 489.27 573.74 489.737 574.245 490.279L574.321 490.361L578.617 495.2L577.11 499.722L571.819 493.545L571.766 493.484L571.662 493.366C571.627 493.327 571.594 493.29 571.56 493.253L571.461 493.145C570.84 492.479 570.349 492.115 569.776 491.933C569.333 491.793 568.84 491.759 568.178 491.849L568.052 491.867C567.839 491.9 567.608 491.945 567.356 492.003L567.203 492.039L564.826 492.621L564.987 494.925C564.99 494.978 564.994 495.03 564.998 495.081L565.01 495.232C565.013 495.257 565.015 495.281 565.017 495.306L565.031 495.449C565.131 496.384 565.318 496.978 565.661 497.438C565.913 497.775 566.25 498.04 566.728 498.296L566.836 498.353C566.892 498.381 566.949 498.41 567.008 498.438L567.129 498.495C567.191 498.523 567.254 498.552 567.32 498.581L567.454 498.638C567.499 498.658 567.545 498.677 567.593 498.697L567.738 498.756L567.888 498.817L575.529 501.827L571.582 504.622L565.531 502.135C564.845 501.842 564.242 501.489 563.688 501.074L563.591 501L562.344 501.882C562.612 502.511 562.759 503.194 562.841 503.922L562.853 504.031L563.41 510.408L559.463 513.202L558.908 505.174L558.902 505.096L558.89 504.944C558.795 503.875 558.62 503.226 558.228 502.7C557.877 502.229 557.355 501.853 556.436 501.458L556.299 501.4C556.229 501.371 556.157 501.341 556.082 501.312L553.808 500.421L552.549 502.377C552.52 502.422 552.491 502.467 552.463 502.51L552.382 502.64C552.343 502.703 552.305 502.766 552.269 502.827L552.198 502.947C551.776 503.679 551.589 504.227 551.579 504.754L551.579 504.797C551.579 505.349 551.777 505.885 552.189 506.598L552.261 506.723C552.274 506.744 552.286 506.765 552.299 506.786L552.378 506.916L552.461 507.05L552.549 507.188L556.914 514H552.035L548.64 508.522C548.262 507.892 547.987 507.262 547.789 506.608L547.755 506.493H546.214C546.051 507.155 545.759 507.791 545.386 508.427L545.33 508.522L541.934 514H537.055L541.449 507.188L541.534 507.053C541.548 507.031 541.562 507.009 541.575 506.987L541.654 506.858C542.165 506.01 542.391 505.414 542.391 504.797C542.391 504.186 542.176 503.552 541.615 502.64L541.534 502.51C541.52 502.489 541.506 502.467 541.492 502.444L540.189 500.421L537.991 501.283C537.915 501.312 537.841 501.341 537.769 501.37L537.629 501.428L537.494 501.486L537.364 501.543C537.258 501.59 537.158 501.637 537.062 501.684L536.951 501.741C536.385 502.033 536.012 502.328 535.747 502.684C535.437 503.1 535.275 503.601 535.175 504.322L535.158 504.452C535.153 504.496 535.148 504.541 535.142 504.586L535.128 504.726L535.114 504.87L535.101 505.019L535.089 505.174L534.512 513.186L530.565 510.391L531.122 504.015C531.197 503.289 531.354 502.621 531.588 501.979L531.63 501.866L530.384 500.984C529.853 501.426 529.232 501.773 528.547 502.074L528.444 502.119L522.393 504.606L518.445 501.811L526.109 498.817L526.257 498.757C526.281 498.748 526.305 498.738 526.328 498.728L526.467 498.67C526.512 498.651 526.557 498.632 526.6 498.613L526.728 498.556C527.5 498.206 527.976 497.874 528.314 497.421C528.691 496.916 528.9 496.261 528.993 495.156L529.005 495.002L529.172 492.621L526.795 492.039L526.641 492.003C526.591 491.991 526.541 491.98 526.493 491.969L526.349 491.938C526.325 491.933 526.302 491.928 526.279 491.924L526.142 491.897C526.119 491.893 526.097 491.888 526.075 491.885L525.944 491.862C525.237 491.746 524.715 491.757 524.255 491.894L524.213 491.907C523.673 492.078 523.212 492.427 522.643 493.029L522.544 493.135L522.443 493.246C522.426 493.264 522.409 493.284 522.392 493.303L522.287 493.421L522.179 493.545L516.879 499.696L515.371 495.174L519.668 490.334C520.167 489.79 520.697 489.34 521.274 488.955L521.376 488.887L520.9 487.459C520.203 487.513 519.491 487.439 518.756 487.29L518.645 487.267L512.25 485.813L510.742 481.291L518.749 483.258L518.907 483.295C518.933 483.301 518.959 483.307 518.984 483.313L519.134 483.346C519.184 483.357 519.232 483.367 519.28 483.377L519.42 483.404C519.443 483.408 519.466 483.413 519.489 483.417L519.622 483.44L519.752 483.46C520.41 483.558 520.906 483.54 521.374 483.392C521.969 483.203 522.522 482.808 523.239 482.006L523.34 481.892C523.357 481.872 523.374 481.852 523.392 481.832L524.963 480L523.392 478.168L523.289 478.05C523.273 478.031 523.256 478.012 523.239 477.993L523.14 477.883C523.091 477.83 523.043 477.778 522.996 477.728L522.902 477.63C522.344 477.058 521.881 476.74 521.382 476.582C520.885 476.424 520.349 476.428 519.623 476.556L519.489 476.58C519.466 476.584 519.443 476.589 519.42 476.593L519.279 476.622C519.255 476.627 519.231 476.632 519.207 476.637L519.059 476.67L518.905 476.705L518.749 476.742L510.751 478.683L512.259 474.161L518.654 472.707C519.386 472.552 520.086 472.491 520.785 472.51L520.909 472.514L521.385 471.086C520.789 470.73 520.258 470.263 519.753 469.721L519.677 469.639L515.38 464.8L516.888 460.278L522.179 466.455L522.232 466.516L522.336 466.634L522.438 466.747L522.537 466.855C522.569 466.89 522.602 466.924 522.634 466.958L522.729 467.056L522.822 467.149C523.315 467.632 523.739 467.914 524.222 468.067C524.859 468.269 525.599 468.251 526.795 467.961L529.172 467.379L529.005 464.996L528.994 464.843L528.981 464.694L528.966 464.551C528.961 464.505 528.956 464.459 528.951 464.414L528.934 464.281L528.915 464.153C528.807 463.441 528.628 462.953 528.337 462.562C527.992 462.1 527.487 461.774 526.678 461.419L526.544 461.362L526.405 461.303L526.26 461.244L526.109 461.183L518.468 458.173L522.416 455.378L528.467 457.865C529.152 458.158 529.755 458.511 530.31 458.926L530.407 459L531.653 458.118C531.386 457.489 531.238 456.806 531.156 456.078L531.145 455.969L530.588 449.592L534.535 446.798L535.089 454.826L535.101 454.981C535.108 455.057 535.114 455.13 535.122 455.202L535.136 455.344C535.237 456.245 535.414 456.823 535.77 457.3C536.052 457.679 536.446 457.996 537.067 458.312L537.183 458.37C537.4 458.475 537.642 458.58 537.915 458.688L540.189 459.578L541.492 457.556L541.575 457.425C541.602 457.381 541.628 457.339 541.654 457.297L541.729 457.173C541.741 457.153 541.753 457.133 541.764 457.113L541.833 456.994C542.231 456.291 542.409 455.758 542.419 455.246L542.419 455.203C542.419 454.761 542.292 454.33 542.03 453.81L541.972 453.697C541.922 453.602 541.868 453.503 541.809 453.402L541.736 453.277C541.724 453.256 541.711 453.235 541.698 453.214L541.619 453.084L541.536 452.95L541.449 452.812L537.083 446H541.963ZM547.784 457.233H546.243C546.054 457.864 545.764 458.494 545.395 459.124L545.33 459.235L544.138 461.125L541.944 464.682L541.906 464.667L537.932 463.084L535.824 462.245C535.139 461.951 534.536 461.599 533.996 461.202L533.901 461.132L532.654 462.014C532.882 462.632 533.027 463.309 533.109 464.029L533.123 464.157L533.299 466.368L533.67 470.503L533.63 470.513L529.46 471.508L527.248 472.036C526.517 472.191 525.816 472.252 525.14 472.24L525.021 472.237L524.545 473.665C525.102 474.035 525.627 474.499 526.129 475.035L526.217 475.13L527.693 476.818L530.487 479.951L530.46 479.982L527.687 483.175L526.217 484.87C525.718 485.414 525.188 485.864 524.634 486.242L524.536 486.308L525.012 487.736C525.686 487.716 526.391 487.791 527.12 487.937L527.248 487.964L529.461 488.483L533.611 489.418L533.608 489.458L533.291 493.63L533.123 495.843C533.048 496.569 532.891 497.237 532.671 497.86L532.631 497.969L533.878 498.852C534.411 498.45 535.026 498.106 535.704 497.807L535.824 497.755L537.928 496.908L541.848 495.287L541.87 495.322L544.13 498.878L545.33 500.765C545.707 501.395 545.982 502.025 546.18 502.656L546.214 502.767H547.755C547.944 502.136 548.234 501.506 548.602 500.876L548.668 500.765L549.859 498.875L552.053 495.318L552.092 495.333L556.066 496.916L558.174 497.755C558.859 498.049 559.462 498.401 560.002 498.798L560.097 498.868L561.343 497.986C561.116 497.368 560.971 496.691 560.888 495.971L560.875 495.843L560.698 493.632L560.327 489.497L560.368 489.487L564.537 488.492L566.749 487.964C567.481 487.809 568.181 487.748 568.857 487.76L568.976 487.763L569.453 486.335C568.896 485.965 568.37 485.501 567.869 484.965L567.781 484.87L566.305 483.182L563.511 480.049L563.537 480.018L566.31 476.824L567.781 475.13C568.279 474.586 568.809 474.136 569.363 473.758L569.461 473.692L568.985 472.264C568.312 472.284 567.607 472.209 566.878 472.063L566.749 472.036L564.537 471.516L560.387 470.582L560.39 470.542L560.706 466.37L560.875 464.157C560.949 463.431 561.107 462.763 561.327 462.14L561.366 462.031L560.12 461.148C559.587 461.55 558.972 461.894 558.294 462.193L558.174 462.245L556.07 463.091L552.149 464.713L552.127 464.678L549.867 461.122L548.668 459.235C548.291 458.605 548.015 457.975 547.818 457.344L547.784 457.233Z" fill="#FFFCED"/>
<defs>
<filter id="filter0_f_802_203" x="0" y="0" width="1093" height="768" filterUnits="userSpaceOnUse" color-interpolation-filters="sRGB">
<feFlood flood-opacity="0" result="BackgroundImageFix"/>
<feBlend mode="normal" in="SourceGraphic" in2="BackgroundImageFix" result="shape"/>
<feGaussianBlur stdDeviation="100" result="effect1_foregroundBlur_802_203"/>
</filter>
<filter id="filter1_f_802_203" x="120" y="25" width="853" height="528" filterUnits="userSpaceOnUse" color-interpolation-filters="sRGB">
<feFlood flood-opacity="0" result="BackgroundImageFix"/>
<feBlend mode="normal" in="SourceGraphic" in2="BackgroundImageFix" result="shape"/>
<feGaussianBlur stdDeviation="40" result="effect1_foregroundBlur_802_203"/>
</filter>
</defs>
</svg>
