<svg width="74" height="74" viewBox="0 0 74 74" fill="none" xmlns="http://www.w3.org/2000/svg">
<path d="M29.8104 10.4008C34.6533 9.07383 39.7642 9.07441 44.6065 10.4026L43.7359 13.5478C39.4635 12.3764 34.9546 12.3758 30.6817 13.5466L29.8104 10.4008ZM50.9298 13.0233L49.3208 15.8625C53.1735 18.0521 56.3631 21.2422 58.5514 25.0949L61.3906 23.4871C58.9109 19.1198 55.2965 15.5042 50.9298 13.0233ZM64.0079 44.607C65.3425 39.7653 65.3436 34.6531 64.0096 29.8108L60.8644 30.6803V30.6809C62.041 34.9533 62.041 39.4645 60.8644 43.7369L64.0079 44.607ZM54.5576 54.5608C52.9981 56.1221 51.2351 57.4654 49.3154 58.5541L50.9239 61.3933C55.2917 58.9136 58.9074 55.2981 61.3883 50.9307L58.549 49.3217C57.4604 51.2395 56.1176 53.0013 54.5576 54.559V54.5608ZM43.7296 60.8671C39.4566 62.0379 34.9484 62.0379 30.6754 60.8671L29.8047 64.0124C34.6464 65.3469 39.7586 65.3475 44.6009 64.0147L43.7296 60.8671ZM23.4799 61.3893L25.0889 58.55C21.2362 56.3605 18.0473 53.1704 15.8584 49.3171L13.0191 50.9255C15.4988 55.2928 19.1139 58.9084 23.4805 61.3887L23.4799 61.3893ZM10.4025 29.8041C9.06731 34.6458 9.06673 39.758 10.4001 44.6003L13.546 43.7308C12.3699 39.4578 12.3705 34.9472 13.5471 30.6748L10.4025 29.8041ZM19.8522 19.8532C21.4117 18.292 23.1751 16.9486 25.0949 15.8594L23.4865 13.0202C19.1192 15.5004 15.5042 19.1149 13.0233 23.481L15.8625 25.09C16.9506 23.1726 18.2927 21.4115 19.8522 19.8531V19.8532ZM51.0405 42.936C51.8774 45.2491 51.8972 47.7789 51.0959 50.1042L50.8348 50.8373L50.1011 51.0984V51.099C47.7764 51.8997 45.2466 51.8794 42.9347 51.0425C41.891 53.2693 40.1163 55.0724 37.9059 56.1505L37.2054 56.4838L36.5032 56.1487V56.1493C34.2928 55.0712 32.5182 53.2686 31.4744 51.0419C29.162 51.8788 26.6327 51.898 24.3074 51.0973L23.5743 50.8362L23.3132 50.1025H23.3126C22.5119 47.7778 22.5317 45.248 23.3692 42.9355C21.1418 41.8929 19.3386 40.1177 18.2612 37.9073L17.9261 37.2051L18.2612 36.5023C19.3393 34.2924 21.1413 32.5184 23.368 31.4759C22.5305 29.1628 22.5113 26.633 23.312 24.3077L23.5731 23.574L24.3068 23.3129C26.6321 22.5122 29.1614 22.5326 31.4738 23.3694C32.517 21.142 34.2916 19.3395 36.5026 18.2614L37.2054 17.9281L37.9076 18.2632C40.1181 19.3413 41.8927 21.1439 42.9358 23.3706C45.2483 22.5337 47.7781 22.5139 50.1034 23.3146L50.8365 23.5757L51.0976 24.3089H51.0982C51.8989 26.6341 51.8791 29.164 51.0417 31.4764C53.2691 32.5196 55.0716 34.2942 56.1497 36.5046L56.4848 37.2074L56.1497 37.9097C55.0709 40.1201 53.2679 41.8941 51.0405 42.9361L51.0405 42.936ZM52.8152 37.2062C51.7848 35.6187 50.2142 34.459 48.3936 33.9427L46.4623 33.3704L47.4233 31.5999C48.3453 29.9478 48.6366 28.0176 48.2427 26.1667C46.3924 25.7728 44.4616 26.0641 42.8095 26.9867L41.0384 27.9483L40.4667 26.018C39.951 24.1975 38.7924 22.6263 37.2056 21.5959C35.618 22.6256 34.4584 24.1975 33.942 26.018L33.3697 27.9499L31.5987 26.9883C29.9471 26.0664 28.0169 25.775 26.1661 26.1684C25.7727 28.0192 26.0635 29.95 26.986 31.6022L27.947 33.3726L26.0157 33.9449C24.1952 34.4612 22.624 35.6209 21.5942 37.2085C22.6239 38.796 24.1952 39.9557 26.0157 40.472L27.9476 41.0443L26.9866 42.8147C26.0652 44.4651 25.7744 46.3935 26.1667 48.2427C28.0175 48.6367 29.9483 48.3459 31.5999 47.4234L33.3703 46.4624L33.942 48.3954C34.4584 50.2154 35.618 51.7865 37.2056 52.8164C38.7931 51.786 39.9528 50.2148 40.4691 48.3942L41.0414 46.463L42.8119 47.424C44.4634 48.3453 46.393 48.6367 48.2427 48.2428C48.6366 46.3925 48.3458 44.4617 47.4239 42.8095L46.4629 41.0385L48.3948 40.4662H48.3942C50.2142 39.9504 51.7848 38.7924 52.8152 37.2061L52.8152 37.2062ZM24.7762 6.44308C27.5421 5.32356 30.4461 4.58341 33.4101 4.24251L33.0388 1C26.5001 1.75528 20.2864 4.26414 15.0569 8.26201L17.0412 10.853L17.0418 10.8524C19.4096 9.0411 22.0117 7.55799 24.7765 6.44309L24.7762 6.44308ZM57.8309 11.2137L59.8613 8.65886C54.7038 4.56954 48.5362 1.95049 42.0121 1.07982L41.5826 4.31487C47.5217 5.10803 53.1356 7.49159 57.831 11.2137H57.8309ZM70.1672 33.4104L73.4097 33.0391V33.0397C72.6545 26.5004 70.1456 20.2869 66.1477 15.0577L63.5573 17.0427C67.1957 21.8034 69.4795 27.4586 70.1672 33.4104V33.4104ZM67.7453 50.169C66.5809 52.9162 65.051 55.4933 63.1961 57.8302L65.751 59.8605C69.841 54.703 72.46 48.5355 73.3307 42.0114L70.0956 41.5848C69.7023 44.5389 68.912 47.4265 67.7459 50.1696L67.7453 50.169ZM49.632 67.9674C46.8662 69.0863 43.9616 69.8265 40.9976 70.1674L41.3688 73.4099H41.3694C47.9081 72.6546 54.1218 70.1451 59.3514 66.1473L57.3664 63.5569C54.9986 65.3682 52.3976 66.8519 49.6329 67.9673L49.632 67.9674ZM16.5788 63.1957L14.5485 65.7506V65.7512C19.706 69.8405 25.8735 72.4595 32.3976 73.3308L32.826 70.0952H32.8254C26.8875 69.3014 21.2736 66.9178 16.5785 63.1957L16.5788 63.1957ZM4.24251 40.9991L1 41.3697C1.75528 47.9085 4.26415 54.1221 8.26201 59.3517L10.8524 57.3667C7.21409 52.6066 4.92969 46.9508 4.24251 40.999V40.9991ZM6.66447 24.2405V24.2399C7.82828 21.4933 9.35811 18.9162 11.2118 16.5787L8.65692 14.5483V14.5489C4.567 19.7064 1.94796 25.874 1.07668 32.3981L4.31174 32.8264C4.70569 29.8711 5.49594 26.9835 6.66269 24.2398L6.66447 24.2405ZM45.7972 37.2014V37.2009C45.7972 39.5803 44.852 41.8625 43.1695 43.5455C41.4871 45.2279 39.2049 46.1732 36.8255 46.1732C34.446 46.1732 32.1639 45.2279 30.4808 43.5455C28.7984 41.8625 27.8531 39.5803 27.8531 37.2009C27.8531 34.8214 28.7984 32.5392 30.4808 30.8568C32.1639 29.1744 34.446 28.2291 36.8255 28.2291C39.2037 28.232 41.4843 29.1785 43.1655 30.8604C44.8473 32.5422 45.7932 34.8228 45.7956 37.201L45.7972 37.2014ZM42.5337 37.2014V37.2009C42.5337 35.6869 41.9323 34.2351 40.8623 33.1645C39.7917 32.0934 38.3395 31.4919 36.8253 31.4919C35.3113 31.4919 33.8596 32.0933 32.7884 33.1639C31.7178 34.2345 31.1164 35.6867 31.1164 37.2009C31.1164 38.715 31.7178 40.1666 32.7884 41.2372C33.8589 42.3078 35.3112 42.9092 36.8253 42.9092C38.3383 42.9074 39.7887 42.3049 40.8587 41.2348C41.9287 40.1648 42.5301 38.7142 42.5319 37.2009L42.5337 37.2014Z" fill="#21232F" stroke="#101118"/>
</svg>
