<?xml version="1.0" encoding="UTF-8"?>
<svg width="74px" height="74px" viewBox="0 0 74 74" version="1.1" xmlns="http://www.w3.org/2000/svg" xmlns:xlink="http://www.w3.org/1999/xlink">
    <title>Shape</title>
    <g id="Page-1" stroke="none" stroke-width="1" fill="none" fill-rule="evenodd">
        <g id="access" transform="translate(1.000000, 1.000000)" fill="#2F2B26" fill-rule="nonzero" stroke="#2F2B26">
            <path d="M28.8104,9.4008 C33.6533,8.07383 38.7642,8.07441 43.6065,9.4026 L42.7359,12.5478 C38.4635,11.3764 33.9546,11.3758 29.6817,12.5466 L28.8104,9.4008 Z M49.9298,12.0233 L48.3208,14.8625 C52.1735,17.0521 55.3631,20.2422 57.5514,24.0949 L60.3906,22.4871 C57.9109,18.1198 54.2965,14.5042 49.9298,12.0233 Z M63.0079,43.607 C64.3425,38.7653 64.3436,33.6531 63.0096,28.8108 L59.8644,29.6803 L59.8644,29.6809 C61.041,33.9533 61.041,38.4645 59.8644,42.7369 L63.0079,43.607 Z M53.5576,53.5608 C51.9981,55.1221 50.2351,56.4654 48.3154,57.5541 L49.9239,60.3933 C54.2917,57.9136 57.9074,54.2981 60.3883,49.9307 L57.549,48.3217 C56.4604,50.2395 55.1176,52.0013 53.5576,53.559 L53.5576,53.5608 Z M42.7296,59.8671 C38.4566,61.0379 33.9484,61.0379 29.6754,59.8671 L28.8047,63.0124 C33.6464,64.3469 38.7586,64.3475 43.6009,63.0147 L42.7296,59.8671 Z M22.4799,60.3893 L24.0889,57.55 C20.2362,55.3605 17.0473,52.1704 14.8584,48.3171 L12.0191,49.9255 C14.4988,54.2928 18.1139,57.9084 22.4805,60.3887 L22.4799,60.3893 Z M9.4025,28.8041 C8.06731,33.6458 8.06673,38.758 9.4001,43.6003 L12.546,42.7308 C11.3699,38.4578 11.3705,33.9472 12.5471,29.6748 L9.4025,28.8041 Z M18.8522,18.8532 C20.4117,17.292 22.1751,15.9486 24.0949,14.8594 L22.4865,12.0202 C18.1192,14.5004 14.5042,18.1149 12.0233,22.481 L14.8625,24.09 C15.9506,22.1726 17.2927,20.4115 18.8522,18.8531 L18.8522,18.8532 Z M50.0405,41.936 C50.8774,44.2491 50.8972,46.7789 50.0959,49.1042 L49.8348,49.8373 L49.1011,50.0984 L49.1011,50.099 C46.7764,50.8997 44.2466,50.8794 41.9347,50.0425 C40.891,52.2693 39.1163,54.0724 36.9059,55.1505 L36.2054,55.4838 L35.5032,55.1487 L35.5032,55.1493 C33.2928,54.0712 31.5182,52.2686 30.4744,50.0419 C28.162,50.8788 25.6327,50.898 23.3074,50.0973 L22.5743,49.8362 L22.3132,49.1025 L22.3126,49.1025 C21.5119,46.7778 21.5317,44.248 22.3692,41.9355 C20.1418,40.8929 18.3386,39.1177 17.2612,36.9073 L16.9261,36.2051 L17.2612,35.5023 C18.3393,33.2924 20.1413,31.5184 22.368,30.4759 C21.5305,28.1628 21.5113,25.633 22.312,23.3077 L22.5731,22.574 L23.3068,22.3129 C25.6321,21.5122 28.1614,21.5326 30.4738,22.3694 C31.517,20.142 33.2916,18.3395 35.5026,17.2614 L36.2054,16.9281 L36.9076,17.2632 C39.1181,18.3413 40.8927,20.1439 41.9358,22.3706 C44.2483,21.5337 46.7781,21.5139 49.1034,22.3146 L49.8365,22.5757 L50.0976,23.3089 L50.0982,23.3089 C50.8989,25.6341 50.8791,28.164 50.0417,30.4764 C52.2691,31.5196 54.0716,33.2942 55.1497,35.5046 L55.4848,36.2074 L55.1497,36.9097 C54.0709,39.1201 52.2679,40.8941 50.0405,41.9361 L50.0405,41.936 Z M51.8152,36.2062 C50.7848,34.6187 49.2142,33.459 47.3936,32.9427 L45.4623,32.3704 L46.4233,30.5999 C47.3453,28.9478 47.6366,27.0176 47.2427,25.1667 C45.3924,24.7728 43.4616,25.0641 41.8095,25.9867 L40.0384,26.9483 L39.4667,25.018 C38.951,23.1975 37.7924,21.6263 36.2056,20.5959 C34.618,21.6256 33.4584,23.1975 32.942,25.018 L32.3697,26.9499 L30.5987,25.9883 C28.9471,25.0664 27.0169,24.775 25.1661,25.1684 C24.7727,27.0192 25.0635,28.95 25.986,30.6022 L26.947,32.3726 L25.0157,32.9449 C23.1952,33.4612 21.624,34.6209 20.5942,36.2085 C21.6239,37.796 23.1952,38.9557 25.0157,39.472 L26.9476,40.0443 L25.9866,41.8147 C25.0652,43.4651 24.7744,45.3935 25.1667,47.2427 C27.0175,47.6367 28.9483,47.3459 30.5999,46.4234 L32.3703,45.4624 L32.942,47.3954 C33.4584,49.2154 34.618,50.7865 36.2056,51.8164 C37.7931,50.786 38.9528,49.2148 39.4691,47.3942 L40.0414,45.463 L41.8119,46.424 C43.4634,47.3453 45.393,47.6367 47.2427,47.2428 C47.6366,45.3925 47.3458,43.4617 46.4239,41.8095 L45.4629,40.0385 L47.3948,39.4662 L47.3942,39.4662 C49.2142,38.9504 50.7848,37.7924 51.8152,36.2061 L51.8152,36.2062 Z M23.7762,5.44308 C26.5421,4.32356 29.4461,3.58341 32.4101,3.24251 L32.0388,0 C25.5001,0.75528 19.2864,3.26414 14.0569,7.26201 L16.0412,9.853 L16.0418,9.8524 C18.4096,8.0411 21.0117,6.55799 23.7765,5.44309 L23.7762,5.44308 Z M56.8309,10.2137 L58.8613,7.65886 C53.7038,3.56954 47.5362,0.95049 41.0121,0.07982 L40.5826,3.31487 C46.5217,4.10803 52.1356,6.49159 56.831,10.2137 L56.8309,10.2137 Z M69.1672,32.4104 L72.4097,32.0391 L72.4097,32.0397 C71.6545,25.5004 69.1456,19.2869 65.1477,14.0577 L62.5573,16.0427 C66.1957,20.8034 68.4795,26.4586 69.1672,32.4104 L69.1672,32.4104 Z M66.7453,49.169 C65.5809,51.9162 64.051,54.4933 62.1961,56.8302 L64.751,58.8605 C68.841,53.703 71.46,47.5355 72.3307,41.0114 L69.0956,40.5848 C68.7023,43.5389 67.912,46.4265 66.7459,49.1696 L66.7453,49.169 Z M48.632,66.9674 C45.8662,68.0863 42.9616,68.8265 39.9976,69.1674 L40.3688,72.4099 L40.3694,72.4099 C46.9081,71.6546 53.1218,69.1451 58.3514,65.1473 L56.3664,62.5569 C53.9986,64.3682 51.3976,65.8519 48.6329,66.9673 L48.632,66.9674 Z M15.5788,62.1957 L13.5485,64.7506 L13.5485,64.7512 C18.706,68.8405 24.8735,71.4595 31.3976,72.3308 L31.826,69.0952 L31.8254,69.0952 C25.8875,68.3014 20.2736,65.9178 15.5785,62.1957 L15.5788,62.1957 Z M3.24251,39.999 L0,40.3697 C0.75528,46.9085 3.26415,53.1221 7.26201,58.3517 L9.8524,56.3667 C6.21409,51.6066 3.92969,45.9508 3.24251,39.999 L3.24251,39.999 Z M5.66447,23.2405 L5.66447,23.2399 C6.82828,20.4933 8.35811,17.9162 10.2118,15.5787 L7.65692,13.5483 L7.65692,13.5489 C3.567,18.7064 0.94796,24.874 0.07668,31.3981 L3.31174,31.8264 C3.70569,28.8711 4.49594,25.9835 5.66269,23.2398 L5.66447,23.2405 Z M44.7972,36.2014 L44.7972,36.2009 C44.7972,38.5803 43.852,40.8625 42.1695,42.5455 C40.4871,44.2279 38.2049,45.1732 35.8255,45.1732 C33.446,45.1732 31.1639,44.2279 29.4808,42.5455 C27.7984,40.8625 26.8531,38.5803 26.8531,36.2009 C26.8531,33.8214 27.7984,31.5392 29.4808,29.8568 C31.1639,28.1744 33.446,27.2291 35.8255,27.2291 C38.2037,27.232 40.4843,28.1785 42.1655,29.8604 C43.8473,31.5422 44.7932,33.8228 44.7956,36.201 L44.7972,36.2014 Z M41.5337,36.2014 L41.5337,36.2009 C41.5337,34.6869 40.9323,33.2351 39.8623,32.1645 C38.7917,31.0934 37.3395,30.4919 35.8253,30.4919 C34.3113,30.4919 32.8596,31.0933 31.7884,32.1639 C30.7178,33.2345 30.1164,34.6867 30.1164,36.2009 C30.1164,37.715 30.7178,39.1666 31.7884,40.2372 C32.8589,41.3078 34.3112,41.9092 35.8253,41.9092 C37.3383,41.9074 38.7887,41.3049 39.8587,40.2348 C40.9287,39.1648 41.5301,37.7142 41.5319,36.2009 L41.5337,36.2014 Z" id="Shape"></path>
        </g>
    </g>
</svg>