<svg width="133" height="134" viewBox="0 0 133 134" fill="none" xmlns="http://www.w3.org/2000/svg">
<mask id="path-1-inside-1_529_3911" fill="white">
<path d="M52.9178 17.6989C61.813 15.2616 71.2007 15.2627 80.0948 17.7021L78.4956 23.4792C70.6483 21.3276 62.3666 21.3266 54.5182 23.4771L52.9178 17.6989ZM91.7092 22.5158L88.7538 27.7308C95.8303 31.7525 101.689 37.612 105.708 44.6885L110.923 41.7353C106.369 33.7137 99.7297 27.0726 91.7092 22.5158ZM115.73 80.5275C118.182 71.6345 118.184 62.2446 115.734 53.3505L109.957 54.9476V54.9487C112.118 62.796 112.118 71.0821 109.957 78.9294L115.73 80.5275ZM98.3724 98.8104C95.508 101.678 92.2699 104.145 88.7439 106.145L91.6982 111.36C99.7209 106.805 106.362 100.165 110.919 92.1427L105.704 89.1874C103.704 92.71 101.238 95.946 98.3724 98.8071V98.8104ZM78.4841 110.394C70.6356 112.544 62.355 112.544 54.5066 110.394L52.9074 116.171C61.8004 118.622 71.1903 118.623 80.0844 116.175L78.4841 110.394ZM41.2903 111.353L44.2456 106.138C37.1691 102.116 31.3118 96.2564 27.2913 89.1789L22.0762 92.1332C26.6309 100.155 33.2708 106.796 41.2913 111.352L41.2903 111.353ZM17.2701 53.3382C14.8177 62.2312 14.8167 71.6211 17.2658 80.5152L23.0439 78.9181C20.8838 71.0697 20.8849 62.7847 23.0461 54.9374L17.2701 53.3382ZM34.627 35.0608C37.4914 32.1931 40.7304 29.7258 44.2566 27.7251L41.3023 22.51C33.2807 27.0658 26.6407 33.7046 22.0839 41.7241L27.2989 44.6795C29.2974 41.1576 31.7626 37.9233 34.627 35.0608ZM91.9125 77.4584C93.4496 81.7069 93.486 86.3536 92.0142 90.6246L91.5347 91.9712L90.187 92.4508V92.4518C85.9171 93.9226 81.2704 93.8851 77.0241 92.348C75.1069 96.4382 71.8474 99.7501 67.7874 101.73L66.5008 102.342L65.2109 101.727V101.728C61.1509 99.7477 57.8913 96.4368 55.9743 92.347C51.7268 93.8841 47.0812 93.9194 42.8102 92.4487L41.4636 91.9691L40.9841 90.6214H40.983C39.5122 86.3515 39.5486 81.7049 41.0868 77.4574C36.9956 75.5424 33.6837 72.2819 31.7047 68.2219L31.0892 66.932L31.7047 65.6411C33.685 61.5822 36.9948 58.3237 41.0846 56.4088C39.5464 52.1603 39.5111 47.5136 40.9819 43.2426L41.4614 41.8949L42.8091 41.4154C47.0801 39.9446 51.7257 39.9821 55.9731 41.5192C57.8892 37.428 61.1487 34.1172 65.2098 32.137L66.5007 31.5247L67.7906 32.1402C71.8505 34.1205 75.1101 37.4314 77.0261 41.5213C81.2735 39.9842 85.9202 39.9478 90.1912 41.4186L91.5378 41.8981L92.0174 43.2447H92.0184C93.4892 47.5157 93.4528 52.1624 91.9146 56.4098C96.0059 58.3259 99.3167 61.5854 101.297 65.6454L101.912 66.9363L101.297 68.2262C99.3154 72.2862 96.0038 75.5446 91.9125 77.4584ZM95.1721 66.9341C93.2796 64.0182 90.3947 61.8881 87.0507 60.9397L83.5034 59.8886L85.2685 56.6367C86.962 53.6021 87.4972 50.0567 86.7736 46.6571C83.3751 45.9335 79.8286 46.4688 76.794 48.1632L73.541 49.9294L72.491 46.384C71.5436 43.0401 69.4155 40.1543 66.501 38.2616C63.585 40.153 61.455 43.0401 60.5066 46.384L59.4555 49.9324L56.2025 48.1662C53.169 46.4728 49.6236 45.9376 46.224 46.6602C45.5015 50.0597 46.0356 53.6062 47.7301 56.6408L49.4953 59.8927L45.948 60.9438C42.604 61.8922 39.7182 64.0223 37.8266 66.9382C39.718 69.8541 42.604 71.9841 45.948 72.9326L49.4963 73.9837L47.7312 77.2356C46.0389 80.2669 45.5047 83.809 46.2251 87.2056C49.6247 87.9291 53.1712 87.395 56.2047 85.7005L59.4566 83.9354L60.5066 87.486C61.455 90.8289 63.5851 93.7146 66.501 95.6063C69.4169 93.7138 71.547 90.8278 72.4954 87.4838L73.5465 83.9365L76.7984 85.7016C79.8319 87.394 83.3762 87.9292 86.7736 87.2056C87.4972 83.8071 86.963 80.2606 85.2696 77.226L83.5045 73.973L87.0529 72.9219H87.0518C90.3947 71.9746 93.2796 69.8478 95.1721 66.9341ZM43.6713 10.4295C48.7515 8.37324 54.0854 7.01376 59.5295 6.38761L58.8477 0.431885C46.8376 1.81915 35.4246 6.42734 25.8191 13.7705L29.4639 18.5295L29.465 18.5284C33.8141 15.2015 38.593 12.4773 43.6713 10.4295ZM104.385 19.1921L108.114 14.4994C98.641 6.98828 87.3127 2.17772 75.3294 0.57849L74.5405 6.52051C85.4493 7.97735 95.7607 12.3554 104.385 19.1921ZM127.044 59.962L132.999 59.2801V59.2812C131.612 47.27 127.004 35.8573 119.661 26.2526L114.903 29.8986C121.586 38.6428 125.78 49.0299 127.044 59.962ZM122.595 90.7436C120.456 95.7895 117.646 100.523 114.239 104.815L118.932 108.545C126.444 99.0715 131.255 87.7432 132.854 75.76L126.912 74.9764C126.19 80.4025 124.738 85.7063 122.596 90.7448L122.595 90.7436ZM89.3254 123.435C84.2452 125.49 78.9102 126.85 73.4661 127.476L74.1479 133.432H74.149C86.1591 132.044 97.5721 127.435 107.178 120.092L103.532 115.334C99.1825 118.661 94.4051 121.386 89.3271 123.435L89.3254 123.435ZM28.6145 114.671L24.8853 119.363V119.364C34.3584 126.875 45.6868 131.686 57.67 133.286L58.4567 127.343H58.4557C47.5491 125.885 37.2382 121.507 28.6145 114.671ZM5.95572 73.9007L0 74.5815C1.38727 86.5916 5.99546 98.0046 13.3386 107.61L18.0965 103.964C11.4138 95.221 7.21789 84.8328 5.95572 73.9007ZM10.4043 43.1191V43.1181C12.5419 38.0732 15.3519 33.3397 18.7567 29.0462L14.0639 25.3169V25.318C6.55173 34.7912 1.74117 46.1195 0.14085 58.1027L6.08287 58.8895C6.80647 53.4613 8.25797 48.1575 10.401 43.1178L10.4043 43.1191ZM82.2818 66.9253V66.9242C82.2818 71.2947 80.5456 75.4865 77.4554 78.5778C74.3651 81.668 70.1733 83.4043 65.8029 83.4043C61.4324 83.4043 57.2406 81.6681 54.1493 78.5778C51.0591 75.4865 49.3228 71.2947 49.3228 66.9242C49.3228 62.5538 51.059 58.362 54.1493 55.2718C57.2406 52.1815 61.4324 50.4453 65.8029 50.4453C70.1712 50.4507 74.3599 52.189 77.448 55.2783C80.5371 58.3675 82.2744 62.5562 82.2788 66.9245L82.2818 66.9253ZM76.2874 66.9253V66.9242C76.2874 64.1434 75.1828 61.4768 73.2175 59.5104C71.2511 57.543 68.5837 56.4383 65.8026 56.4383C63.0218 56.4383 60.3552 57.543 58.3877 59.5093C56.4213 61.4757 55.3166 64.1431 55.3166 66.9242C55.3166 69.7054 56.4213 72.3717 58.3877 74.3381C60.354 76.3044 63.0215 77.4091 65.8026 77.4091C68.5815 77.4059 71.2456 76.2991 73.2109 74.3337C75.1762 72.3684 76.2809 69.704 76.2842 66.9242L76.2874 66.9253Z"/>
</mask>
<path d="M52.9178 17.6989C61.813 15.2616 71.2007 15.2627 80.0948 17.7021L78.4956 23.4792C70.6483 21.3276 62.3666 21.3266 54.5182 23.4771L52.9178 17.6989ZM91.7092 22.5158L88.7538 27.7308C95.8303 31.7525 101.689 37.612 105.708 44.6885L110.923 41.7353C106.369 33.7137 99.7297 27.0726 91.7092 22.5158ZM115.73 80.5275C118.182 71.6345 118.184 62.2446 115.734 53.3505L109.957 54.9476V54.9487C112.118 62.796 112.118 71.0821 109.957 78.9294L115.73 80.5275ZM98.3724 98.8104C95.508 101.678 92.2699 104.145 88.7439 106.145L91.6982 111.36C99.7209 106.805 106.362 100.165 110.919 92.1427L105.704 89.1874C103.704 92.71 101.238 95.946 98.3724 98.8071V98.8104ZM78.4841 110.394C70.6356 112.544 62.355 112.544 54.5066 110.394L52.9074 116.171C61.8004 118.622 71.1903 118.623 80.0844 116.175L78.4841 110.394ZM41.2903 111.353L44.2456 106.138C37.1691 102.116 31.3118 96.2564 27.2913 89.1789L22.0762 92.1332C26.6309 100.155 33.2708 106.796 41.2913 111.352L41.2903 111.353ZM17.2701 53.3382C14.8177 62.2312 14.8167 71.6211 17.2658 80.5152L23.0439 78.9181C20.8838 71.0697 20.8849 62.7847 23.0461 54.9374L17.2701 53.3382ZM34.627 35.0608C37.4914 32.1931 40.7304 29.7258 44.2566 27.7251L41.3023 22.51C33.2807 27.0658 26.6407 33.7046 22.0839 41.7241L27.2989 44.6795C29.2974 41.1576 31.7626 37.9233 34.627 35.0608ZM91.9125 77.4584C93.4496 81.7069 93.486 86.3536 92.0142 90.6246L91.5347 91.9712L90.187 92.4508V92.4518C85.9171 93.9226 81.2704 93.8851 77.0241 92.348C75.1069 96.4382 71.8474 99.7501 67.7874 101.73L66.5008 102.342L65.2109 101.727V101.728C61.1509 99.7477 57.8913 96.4368 55.9743 92.347C51.7268 93.8841 47.0812 93.9194 42.8102 92.4487L41.4636 91.9691L40.9841 90.6214H40.983C39.5122 86.3515 39.5486 81.7049 41.0868 77.4574C36.9956 75.5424 33.6837 72.2819 31.7047 68.2219L31.0892 66.932L31.7047 65.6411C33.685 61.5822 36.9948 58.3237 41.0846 56.4088C39.5464 52.1603 39.5111 47.5136 40.9819 43.2426L41.4614 41.8949L42.8091 41.4154C47.0801 39.9446 51.7257 39.9821 55.9731 41.5192C57.8892 37.428 61.1487 34.1172 65.2098 32.137L66.5007 31.5247L67.7906 32.1402C71.8505 34.1205 75.1101 37.4314 77.0261 41.5213C81.2735 39.9842 85.9202 39.9478 90.1912 41.4186L91.5378 41.8981L92.0174 43.2447H92.0184C93.4892 47.5157 93.4528 52.1624 91.9146 56.4098C96.0059 58.3259 99.3167 61.5854 101.297 65.6454L101.912 66.9363L101.297 68.2262C99.3154 72.2862 96.0038 75.5446 91.9125 77.4584ZM95.1721 66.9341C93.2796 64.0182 90.3947 61.8881 87.0507 60.9397L83.5034 59.8886L85.2685 56.6367C86.962 53.6021 87.4972 50.0567 86.7736 46.6571C83.3751 45.9335 79.8286 46.4688 76.794 48.1632L73.541 49.9294L72.491 46.384C71.5436 43.0401 69.4155 40.1543 66.501 38.2616C63.585 40.153 61.455 43.0401 60.5066 46.384L59.4555 49.9324L56.2025 48.1662C53.169 46.4728 49.6236 45.9376 46.224 46.6602C45.5015 50.0597 46.0356 53.6062 47.7301 56.6408L49.4953 59.8927L45.948 60.9438C42.604 61.8922 39.7182 64.0223 37.8266 66.9382C39.718 69.8541 42.604 71.9841 45.948 72.9326L49.4963 73.9837L47.7312 77.2356C46.0389 80.2669 45.5047 83.809 46.2251 87.2056C49.6247 87.9291 53.1712 87.395 56.2047 85.7005L59.4566 83.9354L60.5066 87.486C61.455 90.8289 63.5851 93.7146 66.501 95.6063C69.4169 93.7138 71.547 90.8278 72.4954 87.4838L73.5465 83.9365L76.7984 85.7016C79.8319 87.394 83.3762 87.9292 86.7736 87.2056C87.4972 83.8071 86.963 80.2606 85.2696 77.226L83.5045 73.973L87.0529 72.9219H87.0518C90.3947 71.9746 93.2796 69.8478 95.1721 66.9341ZM43.6713 10.4295C48.7515 8.37324 54.0854 7.01376 59.5295 6.38761L58.8477 0.431885C46.8376 1.81915 35.4246 6.42734 25.8191 13.7705L29.4639 18.5295L29.465 18.5284C33.8141 15.2015 38.593 12.4773 43.6713 10.4295ZM104.385 19.1921L108.114 14.4994C98.641 6.98828 87.3127 2.17772 75.3294 0.57849L74.5405 6.52051C85.4493 7.97735 95.7607 12.3554 104.385 19.1921ZM127.044 59.962L132.999 59.2801V59.2812C131.612 47.27 127.004 35.8573 119.661 26.2526L114.903 29.8986C121.586 38.6428 125.78 49.0299 127.044 59.962ZM122.595 90.7436C120.456 95.7895 117.646 100.523 114.239 104.815L118.932 108.545C126.444 99.0715 131.255 87.7432 132.854 75.76L126.912 74.9764C126.19 80.4025 124.738 85.7063 122.596 90.7448L122.595 90.7436ZM89.3254 123.435C84.2452 125.49 78.9102 126.85 73.4661 127.476L74.1479 133.432H74.149C86.1591 132.044 97.5721 127.435 107.178 120.092L103.532 115.334C99.1825 118.661 94.4051 121.386 89.3271 123.435L89.3254 123.435ZM28.6145 114.671L24.8853 119.363V119.364C34.3584 126.875 45.6868 131.686 57.67 133.286L58.4567 127.343H58.4557C47.5491 125.885 37.2382 121.507 28.6145 114.671ZM5.95572 73.9007L0 74.5815C1.38727 86.5916 5.99546 98.0046 13.3386 107.61L18.0965 103.964C11.4138 95.221 7.21789 84.8328 5.95572 73.9007ZM10.4043 43.1191V43.1181C12.5419 38.0732 15.3519 33.3397 18.7567 29.0462L14.0639 25.3169V25.318C6.55173 34.7912 1.74117 46.1195 0.14085 58.1027L6.08287 58.8895C6.80647 53.4613 8.25797 48.1575 10.401 43.1178L10.4043 43.1191ZM82.2818 66.9253V66.9242C82.2818 71.2947 80.5456 75.4865 77.4554 78.5778C74.3651 81.668 70.1733 83.4043 65.8029 83.4043C61.4324 83.4043 57.2406 81.6681 54.1493 78.5778C51.0591 75.4865 49.3228 71.2947 49.3228 66.9242C49.3228 62.5538 51.059 58.362 54.1493 55.2718C57.2406 52.1815 61.4324 50.4453 65.8029 50.4453C70.1712 50.4507 74.3599 52.189 77.448 55.2783C80.5371 58.3675 82.2744 62.5562 82.2788 66.9245L82.2818 66.9253ZM76.2874 66.9253V66.9242C76.2874 64.1434 75.1828 61.4768 73.2175 59.5104C71.2511 57.543 68.5837 56.4383 65.8026 56.4383C63.0218 56.4383 60.3552 57.543 58.3877 59.5093C56.4213 61.4757 55.3166 64.1431 55.3166 66.9242C55.3166 69.7054 56.4213 72.3717 58.3877 74.3381C60.354 76.3044 63.0215 77.4091 65.8026 77.4091C68.5815 77.4059 71.2456 76.2991 73.2109 74.3337C75.1762 72.3684 76.2809 69.704 76.2842 66.9242L76.2874 66.9253Z" fill="#2C2E3D" stroke="#101118" stroke-width="3.4" mask="url(#path-1-inside-1_529_3911)"/>
</svg>
