<?xml version="1.0" encoding="UTF-8"?>
<svg width="104px" height="104px" viewBox="0 0 104 104" version="1.1" xmlns="http://www.w3.org/2000/svg" xmlns:xlink="http://www.w3.org/1999/xlink">
    <title>Group 760</title>
    <defs>
        <linearGradient x1="50%" y1="0%" x2="50%" y2="100.000388%" id="linearGradient-1">
            <stop stop-color="#3E4139" stop-opacity="0" offset="0%"></stop>
            <stop stop-color="#A2AE8F" offset="100%"></stop>
        </linearGradient>
    </defs>
    <g id="Page-1" stroke="none" stroke-width="1" fill="none" fill-rule="evenodd">
        <g id="Group-760" fill-rule="nonzero">
            <circle id="Oval" fill="url(#linearGradient-1)" opacity="0.2" cx="51.5058" cy="51.5058" r="51.5058"></circle>
            <g id="Group" opacity="0.5" transform="translate(30.312506, 30.150400)" fill="#D8C296">
                <path d="M21.7764936,-7.10542736e-15 C17.9947936,-7.10542736e-15 14.2781936,0.984300069 10.9926936,2.85690007 C7.70709357,4.72940007 4.96599357,7.42540007 3.03899357,10.6793001 C1.11199357,13.9332001 0.0655935678,17.6329001 0.00299356779,21.4140001 C-0.0597064322,25.1952001 0.863493568,28.9275001 2.68159357,32.2435001 L0.901993568,38.5246001 C0.735893568,39.0970001 0.726593568,39.7034001 0.874893568,40.2806001 C1.02329357,40.8578001 1.32379357,41.3846001 1.74519357,41.8060001 C2.16659357,42.2274001 2.69339357,42.5280001 3.27059357,42.6763001 C3.84779357,42.8246001 4.45419357,42.8153001 5.02659357,42.6493001 L11.3077936,40.8696001 C14.2186936,42.4650001 17.4557936,43.3738001 20.7716936,43.5265001 C24.0875936,43.6793001 27.3945936,43.0718001 30.4397936,41.7507001 C33.4849936,40.4296001 36.1877936,38.4297001 38.3416936,35.9040001 C40.4955936,33.3783001 42.0435936,30.3935001 42.8671936,27.1779001 C43.6908936,23.9623001 43.7684936,20.6009001 43.0940936,17.3507001 C42.4196936,14.1005001 41.0110936,11.0476001 38.9759936,8.42510007 C36.9408936,5.80270007 34.3332936,3.68030007 31.3522936,2.22000007 C28.3712936,0.759800069 25.0958936,0.000500068535 21.7764936,-7.10542736e-15 Z" id="Path"></path>
            </g>
        </g>
    </g>
</svg>