<svg width="52" height="52" viewBox="0 0 52 52" fill="none" xmlns="http://www.w3.org/2000/svg">
<circle cx="25.922" cy="25.7267" r="25.7267" fill="#917D52" fill-opacity="0.2"/>
<path d="M39.6246 30.6695L35.7197 16.8894C35.6446 16.6107 35.5104 16.3539 35.3272 16.1387C35.1441 15.9235 34.9169 15.7556 34.663 15.6478H34.5941L34.663 15.6234C33.3817 15.0793 32.0552 14.6636 30.7007 14.3818C30.5823 14.357 30.4604 14.3571 30.3421 14.3822C30.2237 14.4074 30.1112 14.4569 30.011 14.5282C29.9107 14.5994 29.8247 14.6908 29.7578 14.7973C29.6909 14.9038 29.6444 15.0232 29.6211 15.1487C29.5959 15.2734 29.5945 15.4023 29.6168 15.5276C29.6391 15.653 29.6847 15.7724 29.751 15.8789C29.8173 15.9854 29.9029 16.0768 30.0028 16.1479C30.1028 16.219 30.215 16.2683 30.3331 16.293C30.85 16.4025 31.3553 16.5364 31.8492 16.6825C32.0311 16.7826 32.1762 16.9442 32.2614 17.1418C32.3467 17.3393 32.3672 17.5614 32.3197 17.7727C32.2721 17.984 32.1593 18.1724 31.9991 18.3079C31.839 18.4435 31.6407 18.5183 31.4357 18.5207H31.3438C29.5739 18.0314 27.7519 17.7859 25.9229 17.7903C24.1367 17.7846 22.3573 18.0219 20.6282 18.4963C20.4082 18.5578 20.1744 18.5306 19.9722 18.42C19.77 18.3093 19.6138 18.1231 19.5337 17.8973C19.4537 17.6715 19.4555 17.4223 19.5389 17.1979C19.6223 16.9734 19.7812 16.7898 19.985 16.6825H19.9965C20.4904 16.5364 20.9957 16.4025 21.5126 16.293C21.631 16.2682 21.7436 16.219 21.8441 16.1481C21.9445 16.0771 22.0308 15.986 22.098 15.8797C22.1652 15.7734 22.212 15.6542 22.2357 15.5287C22.2594 15.4033 22.2595 15.2742 22.2361 15.1487C22.1862 14.8968 22.0453 14.6756 21.8436 14.5323C21.6419 14.389 21.3953 14.335 21.1565 14.3818C19.7972 14.6699 18.4666 15.0938 17.1827 15.6478C16.9288 15.7556 16.7016 15.9235 16.5185 16.1387C16.3353 16.3539 16.2011 16.6107 16.126 16.8894L12.2211 30.6695C12.1198 31.0298 12.119 31.4134 12.2189 31.7742C12.3187 32.1349 12.5149 32.4573 12.7838 32.7024C12.8895 32.8103 13.0007 32.9119 13.1169 33.0068H13.1284C14.989 34.6136 17.4353 35.8431 20.1918 36.5492C20.2623 36.5731 20.3359 36.5854 20.41 36.5857C20.6372 36.5895 20.8576 36.504 21.0288 36.3456C21.1999 36.1873 21.3097 35.9673 21.3368 35.7282C21.3639 35.4891 21.3065 35.2479 21.1756 35.051C21.0448 34.8542 20.8497 34.7157 20.6282 34.6623C19.389 34.3451 18.1843 33.8922 17.0334 33.3111C16.8758 33.1547 16.7753 32.9444 16.7494 32.7173C16.7235 32.4901 16.7739 32.2606 16.8918 32.0689C17.0096 31.8771 17.1874 31.7355 17.3939 31.6689C17.6004 31.6022 17.8224 31.6147 18.0211 31.7042C20.2033 32.7268 22.9482 33.372 25.9229 33.372C28.8975 33.372 31.6425 32.7268 33.8246 31.7042C34.0233 31.6147 34.2453 31.6022 34.4518 31.6689C34.6584 31.7355 34.8361 31.8771 34.954 32.0689C35.0718 32.2606 35.1222 32.4901 35.0963 32.7173C35.0704 32.9444 34.9699 33.1547 34.8124 33.3111C33.6614 33.8922 32.4567 34.3451 31.2175 34.6623C30.996 34.7157 30.8009 34.8542 30.6701 35.051C30.5392 35.2479 30.4818 35.4891 30.5089 35.7282C30.536 35.9673 30.6458 36.1873 30.8169 36.3456C30.9881 36.504 31.2086 36.5895 31.4357 36.5857C31.5098 36.5854 31.5834 36.5731 31.6539 36.5492C34.4104 35.8431 36.8567 34.6136 38.7173 33.0068H38.7288C38.845 32.9119 38.9562 32.8103 39.0619 32.7024C39.3308 32.4573 39.527 32.1349 39.6268 31.7742C39.7267 31.4134 39.7259 31.0298 39.6246 30.6695ZM22.2476 28.9896C21.975 28.9896 21.7086 28.9039 21.4819 28.7434C21.2553 28.5829 21.0786 28.3548 20.9743 28.0878C20.87 27.8209 20.8427 27.5272 20.8959 27.2438C20.949 26.9605 21.0803 26.7002 21.2731 26.4959C21.4658 26.2916 21.7114 26.1525 21.9787 26.0961C22.2461 26.0397 22.5232 26.0687 22.775 26.1792C23.0269 26.2898 23.2421 26.477 23.3936 26.7173C23.545 26.9575 23.6258 27.2399 23.6258 27.5288C23.6258 27.9163 23.4806 28.2878 23.2222 28.5618C22.9637 28.8357 22.6131 28.9896 22.2476 28.9896ZM29.5981 28.9896C29.3255 28.9896 29.059 28.9039 28.8324 28.7434C28.6058 28.5829 28.4291 28.3548 28.3248 28.0878C28.2205 27.8209 28.1932 27.5272 28.2464 27.2438C28.2995 26.9605 28.4308 26.7002 28.6236 26.4959C28.8163 26.2916 29.0619 26.1525 29.3292 26.0961C29.5966 26.0397 29.8737 26.0687 30.1255 26.1792C30.3774 26.2898 30.5926 26.477 30.744 26.7173C30.8955 26.9575 30.9763 27.2399 30.9763 27.5288C30.9763 27.9163 30.8311 28.2878 30.5726 28.5618C30.3142 28.8357 29.9636 28.9896 29.5981 28.9896Z" fill="#8E8861"/>
</svg>
