<svg width="52" height="52" viewBox="0 0 52 52" fill="none" xmlns="http://www.w3.org/2000/svg">
<g filter="url(#filter0_b_693_1151)">
<circle cx="25.9191" cy="25.7267" r="25.7267" fill="#1D1F2C"/>
<circle cx="25.9191" cy="25.7267" r="25.2267" stroke="#3A3D53"/>
</g>
<path d="M39.6217 30.6695L35.7167 16.8894C35.6417 16.6107 35.5075 16.3539 35.3243 16.1387C35.1412 15.9235 34.914 15.7556 34.6601 15.6478H34.5912L34.6601 15.6234C33.3788 15.0793 32.0522 14.6636 30.6977 14.3818C30.5793 14.357 30.4575 14.3571 30.3392 14.3822C30.2208 14.4074 30.1083 14.4569 30.008 14.5282C29.9078 14.5994 29.8218 14.6908 29.7549 14.7973C29.6879 14.9038 29.6415 15.0232 29.6181 15.1487C29.593 15.2734 29.5916 15.4023 29.6139 15.5276C29.6362 15.653 29.6818 15.7724 29.7481 15.8789C29.8143 15.9854 29.8999 16.0768 29.9999 16.1479C30.0998 16.219 30.2121 16.2683 30.3302 16.293C30.847 16.4025 31.3524 16.5364 31.8463 16.6825C32.0282 16.7826 32.1733 16.9442 32.2585 17.1418C32.3438 17.3393 32.3643 17.5614 32.3167 17.7727C32.2692 17.984 32.1564 18.1724 31.9962 18.3079C31.836 18.4435 31.6377 18.5183 31.4328 18.5207H31.3409C29.571 18.0314 27.749 17.7859 25.9199 17.7903C24.1338 17.7846 22.3544 18.0219 20.6253 18.4963C20.4052 18.5578 20.1715 18.5306 19.9693 18.42C19.7671 18.3093 19.6108 18.1231 19.5308 17.8973C19.4507 17.6715 19.4526 17.4223 19.5359 17.1979C19.6193 16.9734 19.7783 16.7898 19.9821 16.6825H19.9936C20.4874 16.5364 20.9928 16.4025 21.5096 16.293C21.628 16.2682 21.7407 16.219 21.8411 16.1481C21.9416 16.0771 22.0279 15.986 22.0951 15.8797C22.1623 15.7734 22.209 15.6542 22.2327 15.5287C22.2564 15.4033 22.2566 15.2742 22.2332 15.1487C22.1833 14.8968 22.0424 14.6756 21.8407 14.5323C21.639 14.389 21.3924 14.335 21.1536 14.3818C19.7942 14.6699 18.4637 15.0938 17.1797 15.6478C16.9259 15.7556 16.6987 15.9235 16.5155 16.1387C16.3324 16.3539 16.1981 16.6107 16.1231 16.8894L12.2181 30.6695C12.1168 31.0298 12.1161 31.4134 12.2159 31.7742C12.3158 32.1349 12.512 32.4573 12.7809 32.7024C12.8866 32.8103 12.9978 32.9119 13.114 33.0068H13.1255C14.9861 34.6136 17.4324 35.8431 20.1888 36.5492C20.2594 36.5731 20.333 36.5854 20.4071 36.5857C20.6342 36.5895 20.8547 36.504 21.0258 36.3456C21.197 36.1873 21.3067 35.9673 21.3339 35.7282C21.361 35.4891 21.3036 35.2479 21.1727 35.051C21.0418 34.8542 20.8468 34.7157 20.6253 34.6623C19.3861 34.3451 18.1813 33.8922 17.0304 33.3111C16.8729 33.1547 16.7724 32.9444 16.7465 32.7173C16.7206 32.4901 16.771 32.2606 16.8888 32.0689C17.0067 31.8771 17.1844 31.7355 17.3909 31.6689C17.5974 31.6022 17.8195 31.6147 18.0181 31.7042C20.2003 32.7268 22.9453 33.372 25.9199 33.372C28.8946 33.372 31.6395 32.7268 33.8217 31.7042C34.0204 31.6147 34.2424 31.6022 34.4489 31.6689C34.6554 31.7355 34.8332 31.8771 34.951 32.0689C35.0689 32.2606 35.1193 32.4901 35.0934 32.7173C35.0675 32.9444 34.9669 33.1547 34.8094 33.3111C33.6585 33.8922 32.4538 34.3451 31.2146 34.6623C30.993 34.7157 30.798 34.8542 30.6671 35.051C30.5363 35.2479 30.4789 35.4891 30.506 35.7282C30.5331 35.9673 30.6429 36.1873 30.814 36.3456C30.9852 36.504 31.2056 36.5895 31.4328 36.5857C31.5069 36.5854 31.5805 36.5731 31.651 36.5492C34.4074 35.8431 36.8538 34.6136 38.7144 33.0068H38.7259C38.8421 32.9119 38.9533 32.8103 39.0589 32.7024C39.3278 32.4573 39.524 32.1349 39.6239 31.7742C39.7238 31.4134 39.723 31.0298 39.6217 30.6695ZM22.2447 28.9896C21.9721 28.9896 21.7056 28.9039 21.479 28.7434C21.2523 28.5829 21.0757 28.3548 20.9714 28.0878C20.8671 27.8209 20.8398 27.5272 20.8929 27.2438C20.9461 26.9605 21.0774 26.7002 21.2701 26.4959C21.4629 26.2916 21.7085 26.1525 21.9758 26.0961C22.2431 26.0397 22.5203 26.0687 22.7721 26.1792C23.0239 26.2898 23.2392 26.477 23.3906 26.7173C23.5421 26.9575 23.6229 27.2399 23.6229 27.5288C23.6229 27.9163 23.4777 28.2878 23.2192 28.5618C22.9608 28.8357 22.6102 28.9896 22.2447 28.9896ZM29.5952 28.9896C29.3226 28.9896 29.0561 28.9039 28.8295 28.7434C28.6028 28.5829 28.4262 28.3548 28.3219 28.0878C28.2175 27.8209 28.1903 27.5272 28.2434 27.2438C28.2966 26.9605 28.4279 26.7002 28.6206 26.4959C28.8134 26.2916 29.0589 26.1525 29.3263 26.0961C29.5936 26.0397 29.8708 26.0687 30.1226 26.1792C30.3744 26.2898 30.5897 26.477 30.7411 26.7173C30.8926 26.9575 30.9734 27.2399 30.9734 27.5288C30.9734 27.9163 30.8282 28.2878 30.5697 28.5618C30.3112 28.8357 29.9607 28.9896 29.5952 28.9896Z" fill="#777EAF"/>
<defs>
<filter id="filter0_b_693_1151" x="-93.8076" y="-94" width="239.454" height="239.454" filterUnits="userSpaceOnUse" color-interpolation-filters="sRGB">
<feFlood flood-opacity="0" result="BackgroundImageFix"/>
<feGaussianBlur in="BackgroundImage" stdDeviation="47"/>
<feComposite in2="SourceAlpha" operator="in" result="effect1_backgroundBlur_693_1151"/>
<feBlend mode="normal" in="SourceGraphic" in2="effect1_backgroundBlur_693_1151" result="shape"/>
</filter>
</defs>
</svg>
