<svg width="124" height="124" viewBox="0 0 124 124" fill="none" xmlns="http://www.w3.org/2000/svg">
<path d="M102.454 55.2129C100.35 42.3906 92.3013 31.2952 80.7232 25.3218L80.7231 25.3218C68.8933 19.2198 54.8421 19.2187 43.0114 25.3197L43.0114 25.3197C31.4335 31.2917 23.3838 42.3846 21.2772 55.2072L17.2353 54.632C18.9297 44.1871 24.2369 34.6566 32.2446 27.7133M102.454 55.2129L61.8669 16.6589C50.9846 16.659 40.4674 20.5839 32.2446 27.7133M102.454 55.2129L106.497 54.6376C104.804 44.1928 99.4976 34.6613 91.4894 27.7164C83.2673 20.586 72.7501 16.66 61.867 16.6589L102.454 55.2129ZM32.2446 27.7133L31.6877 27.0711L32.2446 27.7133ZM44.3069 43.1065C49.0495 38.6408 55.3305 36.1485 61.8664 36.1623C68.4023 36.1484 74.6832 38.6407 79.4266 43.1062L82.3129 40.2163C76.7962 34.997 69.4819 32.0773 61.8655 32.0773L44.3069 43.1065ZM44.3069 43.1065L41.4202 40.2198C46.9351 34.9996 54.2499 32.0783 61.8654 32.0773L44.3069 43.1065ZM33.4257 60.9074L33.4267 60.9057C37.2833 54.215 43.376 49.0974 50.6322 46.4545C57.8885 43.8117 65.8442 43.8117 73.1004 46.4545L73.3913 45.6559L73.1004 46.4546C80.3576 49.0974 86.4493 54.2149 90.306 60.9057L90.307 60.9074L90.8994 61.9298L90.307 62.9522L90.306 62.9538C86.4493 69.6445 80.3577 74.7611 73.1003 77.405C65.8441 80.0479 57.8884 80.0479 50.6322 77.405C43.376 74.761 37.2833 69.6445 33.4267 62.9538L33.4257 62.9522L32.8332 61.9298L33.4257 60.9074ZM51.5731 61.872V61.8731C51.5731 64.6025 52.6581 67.2201 54.5881 69.1501C56.518 71.0802 59.1357 72.1651 61.8651 72.1651C64.5946 72.1651 67.2122 71.0801 69.1422 69.1501C71.0722 67.2202 72.1572 64.6025 72.1572 61.8731C72.1572 59.1436 71.0722 56.526 69.1422 54.596C67.2123 52.666 64.5945 51.581 61.8651 51.581L61.8641 51.581C59.1354 51.5845 56.5204 52.6691 54.5915 54.599C52.6612 56.5279 51.5765 59.1444 51.5731 61.872ZM73.5527 72.7921C78.4412 70.6081 82.6273 67.1127 85.6472 62.6967L86.5541 62.5195L85.8482 61.4587C82.8484 56.9509 78.6445 53.3757 73.7145 51.1367L72.7216 52.4683C75.0151 55.1059 76.2657 58.4909 76.2383 61.9861C76.2108 65.4815 74.9077 68.847 72.5734 71.4484L73.5527 72.7921ZM50.4888 51.0694L50.031 51.0041L49.8465 51.2163C44.9898 53.4589 40.8493 57.004 37.8837 61.4592L37.5702 61.9302L37.8838 62.4013C40.9173 66.957 45.1808 70.5598 50.1789 72.7924L51.1581 71.4485C48.823 68.8472 47.5197 65.4817 47.4925 61.9865C47.4658 58.5528 48.6721 55.2255 50.8897 52.609L53.3756 51.4809L50.4907 51.0696L50.4888 51.0694ZM5.70205 55.2542L1.64278 54.8411C3.35695 40.2529 10.311 26.7724 21.226 16.9142C32.353 6.8676 46.8063 1.2981 61.7976 1.28168L61.7977 1.28168C76.7887 1.26437 91.2547 6.80139 102.403 16.8235C113.34 26.6557 120.324 40.1219 122.071 54.7037L118.01 55.1265C116.367 41.5478 109.856 29.0127 99.6698 19.8568L99.1016 20.489L99.6698 19.8568C89.2724 10.5118 75.7816 5.34944 61.8008 5.36393H61.8007C47.8215 5.37965 34.3435 10.5726 23.964 19.9415L23.9639 19.9416C13.7971 29.1203 7.31451 41.6701 5.70205 55.2542ZM117.643 118.133V69.2601H121.725V123.066H0.85V69.2601H4.93185V118.133V118.983H5.78185H116.793H117.643V118.133ZM101.845 103.652V70.3893H105.927V108.585H15.5062V70.4474H19.588V103.652V104.502H20.438H100.995H101.845V103.652ZM34.0081 88.8915H87.4306V92.9733H34.0081V88.8915Z" fill="#2C2E3D" stroke="#101118" stroke-width="1.7"/>
</svg>
