<svg width="71" height="72" viewBox="0 0 71 72" fill="none" xmlns="http://www.w3.org/2000/svg">
<path d="M19.4519 35.2495L18.9781 36.0672L19.4519 36.8848C21.6852 40.7592 25.2132 43.7219 29.415 45.2529C33.6168 46.7833 38.2237 46.7833 42.4255 45.2529C46.6279 43.7219 50.1554 40.7592 52.3886 36.8848L52.8624 36.0672L52.3886 35.2495C50.1554 31.3752 46.6279 28.4118 42.4255 26.8814C38.2237 25.351 33.6168 25.351 29.415 26.8814C25.2132 28.4118 21.6852 31.3752 19.4519 35.2495ZM35.9196 30.7056C37.3328 30.7056 38.6884 31.2674 39.6879 32.2669C40.6873 33.2664 41.2491 34.6219 41.2491 36.0352C41.2491 37.4485 40.6873 38.804 39.6879 39.8034C38.6884 40.8029 37.3329 41.3647 35.9196 41.3647C34.5063 41.3647 33.1508 40.8029 32.1513 39.8034C31.1519 38.804 30.5901 37.4485 30.5901 36.0352C30.5918 34.6225 31.1536 33.2675 32.1531 32.2687C33.152 31.2692 34.5063 30.7074 35.9196 30.7056ZM49.0566 36.0672C47.3945 38.5632 45.0587 40.5372 42.3209 41.7604C43.7167 40.2049 44.4958 38.1926 44.5122 36.1028C44.5286 34.0129 43.7809 31.989 42.4095 30.4119C45.1106 31.6386 47.4138 33.5974 49.0573 36.0671L49.0566 36.0672ZM29.4305 30.412C28.0587 31.989 27.311 34.013 27.3272 36.1029C27.3435 38.1928 28.1227 40.2051 29.519 41.7605C26.7806 40.5373 24.4447 38.5634 22.7827 36.0674C24.4268 33.5975 26.7299 31.6382 29.4316 30.4122L29.4305 30.412ZM4.64398 32.8247L1.3973 32.4943C2.27904 23.959 6.2915 16.0535 12.6594 10.3022C19.0281 4.55192 27.3005 1.36416 35.881 1.35476C44.4612 1.34485 52.741 4.51402 59.1219 10.2503C65.5028 15.9865 69.5326 23.8838 70.4335 32.4155L67.1874 32.7535V32.7541C66.3698 25.0247 62.7181 17.8717 56.9376 12.676C51.157 7.48061 43.6566 4.61048 35.8838 4.61853C28.1118 4.62727 20.6186 7.51433 14.8479 12.7232C9.07898 17.9314 5.44365 25.092 4.64294 32.8236L4.64398 32.8247ZM61.6587 32.3579L58.4279 32.8177V32.8172C57.3858 25.5337 52.8833 19.2041 46.344 15.8303C39.8047 12.4572 32.0374 12.4566 25.4976 15.8291C18.9582 19.2022 14.4551 25.5306 13.4119 32.8145L10.1811 32.3547C11.0669 26.1592 14.1579 20.491 18.886 16.3913C23.6146 12.2915 29.6627 10.0344 35.9206 10.0344C42.179 10.035 48.2271 12.2927 52.9552 16.3931C57.6834 20.4934 60.7737 26.1616 61.659 32.3565L61.6587 32.3579ZM35.9203 22.0026C32.1982 21.9944 28.6274 23.4759 26.0044 26.1164L23.6965 23.8086C26.9356 20.5625 31.3338 18.7379 35.9197 18.7373C40.5062 18.7373 44.9039 20.5608 48.1441 23.8063L45.8369 26.1164C43.2132 23.4759 39.6425 21.9944 35.9203 22.0026ZM66.9237 39.725H70.1872V71.055H1V39.725H4.26355V67.7907H66.9237V39.725ZM12.5362 40.3952V59.6169H58.0065V40.3623H61.2701V62.8812H9.27263V40.3952H12.5362ZM19.716 50.8058H50.8297V54.0694H19.716V50.8058Z" fill="#21232F" stroke="#101118"/>
</svg>
