<?xml version="1.0" encoding="UTF-8"?>
<svg width="71px" height="72px" viewBox="0 0 71 72" version="1.1" xmlns="http://www.w3.org/2000/svg" xmlns:xlink="http://www.w3.org/1999/xlink">
    <title>immersion</title>
    <g id="Page-1" stroke="none" stroke-width="1" fill="none" fill-rule="evenodd">
        <g id="immersion" transform="translate(1.000000, 1.000000)" fill="#2F2B26" fill-rule="nonzero" stroke="#2F2B26">
            <path d="M18.4519,33.8947862 L17.9781,34.7124862 L18.4519,35.5300862 C20.6852,39.4044862 24.2132,42.3671862 28.415,43.8981862 C32.6168,45.4285862 37.2237,45.4285862 41.4255,43.8981862 C45.6279,42.3671862 49.1554,39.4044862 51.3886,35.5300862 L51.8624,34.7124862 L51.3886,33.8947862 C49.1554,30.0204862 45.6279,27.0570862 41.4255,25.5266862 C37.2237,23.9962862 32.6168,23.9962862 28.415,25.5266862 C24.2132,27.0570862 20.6852,30.0204862 18.4519,33.8947862 Z M34.9196,29.3508862 C36.3328,29.3508862 37.6884,29.9126862 38.6879,30.9121862 C39.6873,31.9116862 40.2491,33.2671862 40.2491,34.6804862 C40.2491,36.0937862 39.6873,37.4492862 38.6879,38.4486862 C37.6884,39.4481862 36.3329,40.0099862 34.9196,40.0099862 C33.5063,40.0099862 32.1508,39.4481862 31.1513,38.4486862 C30.1519,37.4492862 29.5901,36.0937862 29.5901,34.6804862 C29.5918,33.2677862 30.1536,31.9127862 31.1531,30.9139862 C32.152,29.9144862 33.5063,29.3526862 34.9196,29.3508862 Z M48.0566,34.7124862 C46.3945,37.2084862 44.0587,39.1824862 41.3209,40.4056862 C42.7167,38.8501862 43.4958,36.8378862 43.5122,34.7480862 C43.5286,32.6581862 42.7809,30.6342862 41.4095,29.0571862 C44.1106,30.2838862 46.4138,32.2426862 48.0573,34.7123862 L48.0566,34.7124862 Z M28.4305,29.0572862 C27.0587,30.6342862 26.311,32.6582862 26.3272,34.7481862 C26.3435,36.8380862 27.1227,38.8503862 28.519,40.4057862 C25.7806,39.1825862 23.4447,37.2086862 21.7827,34.7126862 C23.4268,32.2427862 25.7299,30.2834862 28.4316,29.0574862 L28.4305,29.0572862 Z M3.64398,31.4699862 L0.3973,31.1395862 C1.27904,22.6042862 5.2915,14.6987862 11.6594,8.94748623 C18.0281,3.19720623 26.3005,0.00944623455 34.881,2.30632406e-05 C43.4612,-0.00986376545 51.741,3.15930623 58.1219,8.89558623 C64.5028,14.6317862 68.5326,22.5290862 69.4335,31.0607862 L66.1874,31.3987862 L66.1874,31.3993862 C65.3698,23.6699862 61.7181,16.5169862 55.9376,11.3212862 C50.157,6.12589623 42.6566,3.25576623 34.8838,3.26381623 C27.1118,3.27255623 19.6186,6.15961623 13.8479,11.3684862 C8.07898,16.5766862 4.44365,23.7372862 3.64294,31.4688862 L3.64398,31.4699862 Z M60.659,31.0031862 L57.4279,31.4629862 L57.4279,31.4624862 C56.3858,24.1789862 51.8833,17.8493862 45.344,14.4755862 C38.8047,11.1024862 31.0374,11.1018862 24.4976,14.4743862 C17.9582,17.8474862 13.4551,24.1758862 12.4119,31.4597862 L9.1811,30.9999862 C10.0669,24.8044862 13.1579,19.1362862 17.886,15.0365862 C22.6146,10.9367862 28.6627,8.67968623 34.9206,8.67968623 C41.179,8.68028623 47.2271,10.9379862 51.9552,15.0383862 C56.6834,19.1386862 59.7737,24.8068862 60.659,31.0017862 L60.659,31.0031862 Z M34.9203,20.6478862 C31.1982,20.6396862 27.6274,22.1211862 25.0044,24.7616862 L22.6965,22.4538862 C25.9356,19.2077862 30.3338,17.3831862 34.9197,17.3825862 C39.5062,17.3825862 43.9039,19.2060862 47.1441,22.4515862 L44.8369,24.7616862 C42.2132,22.1211862 38.6425,20.6396862 34.9203,20.6478862 Z M65.9237,38.3702862 L69.1872,38.3702862 L69.1872,69.7002862 L0,69.7002862 L0,38.3702862 L3.26355,38.3702862 L3.26355,66.4359862 L65.9237,66.4359862 L65.9237,38.3702862 Z M11.5362,39.0404862 L11.5362,58.2621862 L57.0065,58.2621862 L57.0065,39.0075862 L60.2701,39.0075862 L60.2701,61.5264862 L8.27263,61.5264862 L8.27263,39.0404862 L11.5362,39.0404862 Z M18.716,49.4510862 L49.8297,49.4510862 L49.8297,52.7146862 L18.716,52.7146862 L18.716,49.4510862 Z" id="Shape"></path>
        </g>
    </g>
</svg>