<svg width="147" height="134" viewBox="0 0 147 134" fill="none" xmlns="http://www.w3.org/2000/svg">
<mask id="path-1-inside-1_529_3902" fill="white">
<path d="M87.2522 110.633C92.7856 106.932 96.4561 101.024 97.3234 94.4223C98.1907 87.8204 96.1702 81.165 91.7808 76.1597C87.3905 71.1529 81.0566 68.2821 74.3978 68.2798C67.739 68.2775 61.4028 71.1452 57.0102 76.1485C52.6164 81.1519 50.5925 87.8061 51.4553 94.4081C52.3182 101.01 55.9854 106.92 61.5165 110.626C51.9743 114.206 44.3758 121.63 40.5747 131.085L46.3694 133.431V133.432C48.6143 127.845 52.4824 123.059 57.4754 119.694C62.4676 116.328 68.3548 114.537 74.3752 114.553H74.4031C80.3429 114.549 86.1521 116.297 91.102 119.58C96.0527 122.863 99.923 127.533 102.23 133.007L107.988 130.569C104.104 121.359 96.6063 114.151 87.2518 110.634L87.2522 110.633ZM57.5117 91.4217C57.5117 86.9465 59.2889 82.653 62.4536 79.4884C65.6182 76.3237 69.9106 74.5442 74.3858 74.5431C78.861 74.5419 83.1545 76.318 86.3203 79.4815C89.4861 82.6451 91.2667 86.9362 91.2687 91.4126C91.2709 95.8878 89.496 100.181 86.3334 103.348C83.171 106.515 78.8799 108.297 74.4035 108.3H74.3756C69.9038 108.291 65.6172 106.51 62.4557 103.346C59.2944 100.182 57.5172 95.8935 57.5115 91.4214L57.5117 91.4217ZM30.0228 121.005L25.9874 125.779C15.6347 117.06 7.90882 105.635 3.67136 92.7783C-0.566088 79.9219 -1.14764 66.1433 1.99022 52.9757C5.12915 39.8102 11.864 27.7739 21.4451 18.2142L25.8658 22.6349C17.1028 31.379 10.9418 42.3855 8.07176 54.4272C5.2006 66.4688 5.73311 79.0706 9.61003 90.829C13.4857 102.586 20.5532 113.033 30.0228 121.007V121.005ZM146.281 69.9087C146.282 80.5537 143.956 91.0705 139.466 100.721C134.976 110.372 128.432 118.925 120.289 125.783L116.254 121.007H116.255C125.776 112.991 132.868 102.474 136.731 90.6439C140.594 78.8123 141.074 66.1365 138.118 54.0477C135.161 41.9569 128.885 30.9346 119.997 22.2211L124.377 17.7624H124.378C131.333 24.5461 136.855 32.6572 140.617 41.6145C144.38 50.5718 146.306 60.1944 146.281 69.9095L146.281 69.9087ZM39.6877 107.331L35.5194 111.989C27.8604 105.155 22.2121 96.3608 19.1823 86.553C16.1537 76.7464 15.859 66.2976 18.3294 56.3353C20.8009 46.3724 25.9447 37.2733 33.2065 30.0184L37.6294 34.4367C31.1704 40.8878 26.596 48.9801 24.399 57.839C22.201 66.6992 22.4644 75.9914 25.1592 84.7129C27.854 93.4347 32.8797 101.254 39.6922 107.33L39.6877 107.331ZM129.609 69.9087C129.6 77.8566 127.915 85.7145 124.664 92.9672C121.413 100.221 116.671 106.707 110.745 112.003L106.578 107.343V107.344C113.402 101.262 118.433 93.4313 121.129 84.6974C123.824 75.9636 124.081 66.6591 121.871 57.7901C119.662 48.9212 115.069 40.8246 108.591 34.3767L113.007 29.9518C118.283 35.1806 122.467 41.405 125.317 48.2647C128.167 55.1244 129.626 62.4808 129.609 69.9087L129.609 69.9087ZM105.647 78.2284C108.571 66.7763 105.253 54.6298 96.9105 46.2561L101.341 41.8466C111.238 51.7806 115.174 66.1911 111.703 79.7773L105.647 78.2284ZM49.5549 46.0732C45.1911 50.3855 42.0936 55.8106 40.5999 61.7607C39.1063 67.7105 39.2737 73.9552 41.0844 79.817L35.1131 81.6701C32.9631 74.7155 32.7633 67.3054 34.5349 60.2459C36.3065 53.1853 39.9803 46.7477 45.1577 41.6315L49.5549 46.0732ZM73.1401 46.7809C80.8291 46.7831 88.0149 50.6066 92.3126 56.9816L87.1341 60.4823C83.9795 55.7928 78.6849 52.9942 73.0318 53.0311C67.3789 53.0668 62.1209 55.9322 59.0254 60.6632L53.8035 57.2274C58.0724 50.7049 65.3439 46.7755 73.1401 46.7809V46.7809ZM74.3189 32.9232C86.5603 32.893 98.2133 27.6687 106.38 18.5496L108.255 16.461L106.38 14.3724C98.2319 5.2288 86.5666 0 74.3189 0C62.0712 0 50.4065 5.2288 42.258 14.3724L40.3826 16.461L42.258 18.5496C50.4248 27.6687 62.0778 32.8929 74.3189 32.9232ZM74.2921 6.27936C76.9924 6.27936 79.5812 7.35101 81.4902 9.25998C83.3991 11.1689 84.4719 13.7575 84.4731 16.458C84.4731 19.1573 83.4014 21.7471 81.4925 23.6561C79.5836 25.5661 76.995 26.639 74.2944 26.639C71.5952 26.6401 69.0053 25.5674 67.0963 23.6595C65.1863 21.7507 64.1134 19.162 64.1134 16.4615C64.1145 13.7623 65.1884 11.1747 67.0963 9.2657C69.0052 7.3557 71.5927 6.28279 74.2921 6.27965V6.27936ZM89.1278 23.5149C91.2543 19.052 91.2543 13.8666 89.1278 9.40258C93.0314 11.1306 96.6093 13.5183 99.7014 16.4609C96.6093 19.4035 93.0314 21.79 89.1278 23.5181V23.5149ZM59.4444 9.43059V9.4317C57.3346 13.8789 57.3346 19.0386 59.4444 23.4872C55.5665 21.7625 52.0121 19.3858 48.9366 16.4612C52.0121 13.5354 55.5662 11.1586 59.4444 9.43399V9.43059Z"/>
</mask>
<path d="M87.2522 110.633C92.7856 106.932 96.4561 101.024 97.3234 94.4223C98.1907 87.8204 96.1702 81.165 91.7808 76.1597C87.3905 71.1529 81.0566 68.2821 74.3978 68.2798C67.739 68.2775 61.4028 71.1452 57.0102 76.1485C52.6164 81.1519 50.5925 87.8061 51.4553 94.4081C52.3182 101.01 55.9854 106.92 61.5165 110.626C51.9743 114.206 44.3758 121.63 40.5747 131.085L46.3694 133.431V133.432C48.6143 127.845 52.4824 123.059 57.4754 119.694C62.4676 116.328 68.3548 114.537 74.3752 114.553H74.4031C80.3429 114.549 86.1521 116.297 91.102 119.58C96.0527 122.863 99.923 127.533 102.23 133.007L107.988 130.569C104.104 121.359 96.6063 114.151 87.2518 110.634L87.2522 110.633ZM57.5117 91.4217C57.5117 86.9465 59.2889 82.653 62.4536 79.4884C65.6182 76.3237 69.9106 74.5442 74.3858 74.5431C78.861 74.5419 83.1545 76.318 86.3203 79.4815C89.4861 82.6451 91.2667 86.9362 91.2687 91.4126C91.2709 95.8878 89.496 100.181 86.3334 103.348C83.171 106.515 78.8799 108.297 74.4035 108.3H74.3756C69.9038 108.291 65.6172 106.51 62.4557 103.346C59.2944 100.182 57.5172 95.8935 57.5115 91.4214L57.5117 91.4217ZM30.0228 121.005L25.9874 125.779C15.6347 117.06 7.90882 105.635 3.67136 92.7783C-0.566088 79.9219 -1.14764 66.1433 1.99022 52.9757C5.12915 39.8102 11.864 27.7739 21.4451 18.2142L25.8658 22.6349C17.1028 31.379 10.9418 42.3855 8.07176 54.4272C5.2006 66.4688 5.73311 79.0706 9.61003 90.829C13.4857 102.586 20.5532 113.033 30.0228 121.007V121.005ZM146.281 69.9087C146.282 80.5537 143.956 91.0705 139.466 100.721C134.976 110.372 128.432 118.925 120.289 125.783L116.254 121.007H116.255C125.776 112.991 132.868 102.474 136.731 90.6439C140.594 78.8123 141.074 66.1365 138.118 54.0477C135.161 41.9569 128.885 30.9346 119.997 22.2211L124.377 17.7624H124.378C131.333 24.5461 136.855 32.6572 140.617 41.6145C144.38 50.5718 146.306 60.1944 146.281 69.9095L146.281 69.9087ZM39.6877 107.331L35.5194 111.989C27.8604 105.155 22.2121 96.3608 19.1823 86.553C16.1537 76.7464 15.859 66.2976 18.3294 56.3353C20.8009 46.3724 25.9447 37.2733 33.2065 30.0184L37.6294 34.4367C31.1704 40.8878 26.596 48.9801 24.399 57.839C22.201 66.6992 22.4644 75.9914 25.1592 84.7129C27.854 93.4347 32.8797 101.254 39.6922 107.33L39.6877 107.331ZM129.609 69.9087C129.6 77.8566 127.915 85.7145 124.664 92.9672C121.413 100.221 116.671 106.707 110.745 112.003L106.578 107.343V107.344C113.402 101.262 118.433 93.4313 121.129 84.6974C123.824 75.9636 124.081 66.6591 121.871 57.7901C119.662 48.9212 115.069 40.8246 108.591 34.3767L113.007 29.9518C118.283 35.1806 122.467 41.405 125.317 48.2647C128.167 55.1244 129.626 62.4808 129.609 69.9087L129.609 69.9087ZM105.647 78.2284C108.571 66.7763 105.253 54.6298 96.9105 46.2561L101.341 41.8466C111.238 51.7806 115.174 66.1911 111.703 79.7773L105.647 78.2284ZM49.5549 46.0732C45.1911 50.3855 42.0936 55.8106 40.5999 61.7607C39.1063 67.7105 39.2737 73.9552 41.0844 79.817L35.1131 81.6701C32.9631 74.7155 32.7633 67.3054 34.5349 60.2459C36.3065 53.1853 39.9803 46.7477 45.1577 41.6315L49.5549 46.0732ZM73.1401 46.7809C80.8291 46.7831 88.0149 50.6066 92.3126 56.9816L87.1341 60.4823C83.9795 55.7928 78.6849 52.9942 73.0318 53.0311C67.3789 53.0668 62.1209 55.9322 59.0254 60.6632L53.8035 57.2274C58.0724 50.7049 65.3439 46.7755 73.1401 46.7809V46.7809ZM74.3189 32.9232C86.5603 32.893 98.2133 27.6687 106.38 18.5496L108.255 16.461L106.38 14.3724C98.2319 5.2288 86.5666 0 74.3189 0C62.0712 0 50.4065 5.2288 42.258 14.3724L40.3826 16.461L42.258 18.5496C50.4248 27.6687 62.0778 32.8929 74.3189 32.9232ZM74.2921 6.27936C76.9924 6.27936 79.5812 7.35101 81.4902 9.25998C83.3991 11.1689 84.4719 13.7575 84.4731 16.458C84.4731 19.1573 83.4014 21.7471 81.4925 23.6561C79.5836 25.5661 76.995 26.639 74.2944 26.639C71.5952 26.6401 69.0053 25.5674 67.0963 23.6595C65.1863 21.7507 64.1134 19.162 64.1134 16.4615C64.1145 13.7623 65.1884 11.1747 67.0963 9.2657C69.0052 7.3557 71.5927 6.28279 74.2921 6.27965V6.27936ZM89.1278 23.5149C91.2543 19.052 91.2543 13.8666 89.1278 9.40258C93.0314 11.1306 96.6093 13.5183 99.7014 16.4609C96.6093 19.4035 93.0314 21.79 89.1278 23.5181V23.5149ZM59.4444 9.43059V9.4317C57.3346 13.8789 57.3346 19.0386 59.4444 23.4872C55.5665 21.7625 52.0121 19.3858 48.9366 16.4612C52.0121 13.5354 55.5662 11.1586 59.4444 9.43399V9.43059Z" fill="#2C2E3D" stroke="#101118" stroke-width="3.4" mask="url(#path-1-inside-1_529_3902)"/>
</svg>
