<svg width="78" height="72" viewBox="0 0 78 72" fill="none" xmlns="http://www.w3.org/2000/svg">
<path d="M46.5508 59.1325C49.4396 57.2 51.3558 54.1159 51.8086 50.6693C52.2614 47.2227 51.2066 43.7482 48.915 41.1351C46.623 38.5213 43.3163 37.0225 39.84 37.0213C36.3638 37.0202 33.0559 38.5173 30.7627 41.1293C28.4689 43.7413 27.4123 47.2152 27.8627 50.6619C28.3132 54.1085 30.2277 57.1936 33.1153 59.1284C28.1336 60.9973 24.1668 64.8735 22.1824 69.8096L25.2076 71.034V71.0346C26.3795 68.1178 28.3989 65.6194 31.0056 63.8624C33.6118 62.1054 36.6853 61.1705 39.8283 61.1787H39.8428C42.9438 61.1764 45.9765 62.089 48.5606 63.803C51.1452 65.5169 53.1657 67.9553 54.3703 70.8126L57.3762 69.5398C55.3487 64.7318 51.4342 60.969 46.5506 59.1326L46.5508 59.1325ZM31.0245 49.1028C31.0245 46.7665 31.9523 44.525 33.6045 42.8729C35.2566 41.2208 37.4975 40.2918 39.8338 40.2912C42.1701 40.2906 44.4115 41.2178 46.0643 42.8693C47.717 44.5209 48.6466 46.7611 48.6477 49.098C48.6488 51.4344 47.7222 53.6758 46.0712 55.3291C44.4202 56.9825 42.18 57.9125 39.843 57.9143H39.8285C37.4939 57.9097 35.2561 56.9795 33.6056 55.3279C31.9552 53.6764 31.0274 51.4373 31.0244 49.1027L31.0245 49.1028ZM16.6737 64.547L14.567 67.0396C9.16224 62.4875 5.12887 56.5228 2.91667 49.811C0.704469 43.0992 0.400866 35.906 2.03901 29.0317C3.67772 22.1585 7.1937 15.8749 12.1956 10.8842L14.5035 13.192C9.92867 17.7569 6.71226 23.503 5.21394 29.7895C3.71502 36.0759 3.99302 42.6548 6.017 48.7934C8.04033 54.9312 11.73 60.3854 16.6737 64.5479V64.547ZM77.3675 37.8717C77.3681 43.4291 76.1536 48.9194 73.8096 53.9575C71.4657 58.9961 68.0489 63.4614 63.7982 67.0414L61.6914 64.5482H61.692C66.6624 60.3633 70.3649 54.8729 72.3818 48.6967C74.3983 42.5199 74.6488 35.9024 73.1056 29.5913C71.5618 23.2792 68.2854 17.5249 63.6455 12.976L65.9323 10.6483H65.9328C69.5635 14.1898 72.4465 18.4243 74.4104 23.1005C76.375 27.7767 77.3802 32.8003 77.3674 37.8722L77.3675 37.8717ZM21.7193 57.4083L19.5432 59.8402C15.5448 56.2725 12.596 51.6813 11.0143 46.561C9.43317 41.4414 9.27936 35.9865 10.5691 30.7856C11.8593 25.5844 14.5447 20.8341 18.3358 17.0466L20.6448 19.3533C17.2728 22.7211 14.8847 26.9457 13.7377 31.5707C12.5902 36.1962 12.7278 41.0473 14.1346 45.6004C15.5414 50.1537 18.1651 54.236 21.7217 57.4081L21.7193 57.4083ZM68.6637 37.8717C68.659 42.021 67.7791 46.1233 66.082 49.9096C64.3849 53.6965 61.9092 57.0824 58.8153 59.8477L56.6398 57.4145V57.4151C60.2024 54.2402 62.8288 50.1519 64.2363 45.5923C65.6437 41.0328 65.7778 36.1753 64.6239 31.5451C63.4706 26.915 61.073 22.6881 57.6911 19.3219L59.9966 17.0119C62.7508 19.7416 64.9351 22.9911 66.4228 26.5723C67.9106 30.1535 68.6723 33.9939 68.6637 37.8717L68.6637 37.8717ZM56.1538 42.2151C57.6806 36.2364 55.948 29.8952 51.593 25.5237L53.9061 23.2216C59.073 28.4078 61.1278 35.9309 59.3154 43.0237L56.1538 42.2151ZM26.8706 25.4282C24.5925 27.6795 22.9754 30.5117 22.1955 33.618C21.4158 36.7242 21.5032 39.9843 22.4485 43.0445L19.3311 44.0119C18.2087 40.3812 18.1044 36.5127 19.0293 32.8272C19.9541 29.1411 21.8721 25.7803 24.575 23.1094L26.8706 25.4282ZM39.1835 25.7977C43.1976 25.7988 46.949 27.7949 49.1927 31.123L46.4892 32.9506C44.8423 30.5024 42.0782 29.0414 39.1269 29.0606C36.1758 29.0793 33.4308 30.5752 31.8148 33.045L29.0886 31.2513C31.3172 27.8462 35.1134 25.7948 39.1835 25.7977ZM39.7989 18.5631C46.1896 18.5474 52.2732 15.8199 56.5366 11.0592L57.5156 9.96887L56.5366 8.8785C52.2829 4.10499 46.1929 1.37524 39.7989 1.37524C33.4049 1.37524 27.3152 4.10499 23.0612 8.8785L22.0821 9.96887L23.0612 11.0592C27.3247 15.8199 33.4083 18.5473 39.7989 18.5631ZM39.7849 4.65344C41.1946 4.65344 42.5461 5.21291 43.5427 6.2095C44.5393 7.20605 45.0994 8.55747 45.1 9.96732C45.1 11.3765 44.5405 12.7285 43.5439 13.7251C42.5473 14.7223 41.1959 15.2824 39.7861 15.2824C38.3769 15.283 37.0249 14.7229 36.0283 13.7269C35.0311 12.7304 34.471 11.379 34.471 9.96911C34.4716 8.55996 35.0322 7.20908 36.0283 6.21249C37.0248 5.21536 38.3756 4.65523 39.7849 4.65359V4.65344ZM47.53 13.6514C48.6402 11.3215 48.6402 8.61446 47.53 6.28395C49.5679 7.18609 51.4358 8.43259 53.05 9.96881C51.4358 11.505 49.5679 12.7509 47.53 13.6531V13.6514ZM32.0335 6.29857V6.29915C30.9321 8.62086 30.9321 11.3145 32.0335 13.637C30.009 12.7366 28.1534 11.4958 26.5478 9.96895C28.1534 8.44153 30.0089 7.20071 32.0335 6.30035V6.29857Z" fill="#21232F" stroke="#101118"/>
</svg>
