<?xml version="1.0" encoding="UTF-8"?>
<svg width="78px" height="74px" viewBox="0 0 78 74" version="1.1" xmlns="http://www.w3.org/2000/svg" xmlns:xlink="http://www.w3.org/1999/xlink">
    <title>insights</title>
    <g id="Page-1" stroke="none" stroke-width="1" fill="none" fill-rule="evenodd">
        <g id="insights" transform="translate(1.000000, 1.020526)" fill="#2F2B26" fill-rule="nonzero" stroke="#2F2B26">
            <path d="M45.5507999,57.75726 C48.4395999,55.82476 50.3557999,52.74066 50.8085999,49.29406 C51.2613999,45.84746 50.2065999,42.37296 47.9149999,39.75986 C45.6229999,37.1460594 42.3162999,35.64726 38.8399999,35.6460594 C35.3637999,35.64496 32.0558999,37.14206 29.7626999,39.75406 C27.4688999,42.36606 26.4122999,45.83996 26.8626999,49.28666 C27.3131999,52.73326 29.2276999,55.81836 32.1152999,57.75316 C27.1335999,59.62206 23.1667999,63.49826 21.1823999,68.43436 L24.2075999,69.65876 L24.2075999,69.65936 C25.3794999,66.74256 27.3988999,64.24416 30.0055999,62.48716 C32.6117999,60.73016 35.6852999,59.79526 38.8282999,59.80346 L38.8427999,59.80346 C41.9437999,59.80116 44.9764999,60.71376 47.5605999,62.42776 C50.1451999,64.14166 52.1656999,66.58006 53.3702999,69.43736 L56.3761999,68.16456 C54.3486999,63.35656 50.4341999,59.59376 45.5505999,57.75736 L45.5507999,57.75726 Z M30.0243999,47.72756 C30.0243999,45.39126 30.9522999,43.14976 32.6044999,41.49766 C34.2565999,39.84556 36.4974999,38.91656 38.8337999,38.9159597 C41.1700999,38.91536 43.4114999,39.84256 45.0642999,41.49406 C46.7169999,43.14566 47.6465999,45.38586 47.6477008,47.72276 C47.6487999,50.05916 46.7221999,52.30056 45.0711999,53.95386 C43.4201999,55.60726 41.1799999,56.53726 38.8429999,56.53906 L38.8284999,56.53906 C36.4938999,56.53446 34.2560999,55.60426 32.6055999,53.95266 C30.9551999,52.30116 30.0273999,50.06206 30.0243999,47.72746 L30.0243999,47.72756 Z M15.6736999,63.17176 L13.5669999,65.66436 C8.16223985,61.11226 4.12886985,55.14756 1.91666985,48.43576 C-0.295531147,41.72396 -0.599134147,34.53076 1.03900985,27.65646 C2.67771985,20.78326 6.19369985,14.49966 11.1955999,9.50896 L13.5034999,11.81676 C8.92866985,16.38166 5.71225985,22.12776 4.21393985,28.41426 C2.71501985,34.70066 2.99301985,41.27956 5.01699985,47.41816 C7.04032985,53.55596 10.7299999,59.01016 15.6736999,63.17266 L15.6736999,63.17176 Z M76.3675206,36.49646 C76.3680999,42.05386 75.1535999,47.54416 72.8095999,52.58226 C70.4656999,57.62086 67.0488999,62.08616 62.7981999,65.66616 L60.6913999,63.17296 L60.6919999,63.17296 C65.6623999,58.98806 69.3648999,53.49766 71.3817999,47.32146 C73.3982999,41.14466 73.6487999,34.52716 72.1055999,28.21606 C70.5617999,21.90396 67.2853999,16.14966 62.6454999,11.60076 L64.9322999,9.27306 L64.9327999,9.27306 C68.5634999,12.81456 71.4464999,17.04906 73.4103999,21.72526 C75.3749999,26.40146 76.3801999,31.42506 76.3675206,36.49696 L76.3675206,36.49646 Z M20.7192999,56.03306 L18.5431999,58.46496 C14.5447999,54.89726 11.5959999,50.30606 10.0142999,45.18576 C8.43316985,40.06616 8.27935985,34.61126 9.56909985,29.41036 C10.8592999,24.20916 13.5446999,19.45886 17.3357999,15.67136 L19.6447999,17.97806 C16.2727999,21.34586 13.8846999,25.57046 12.7376999,30.19546 C11.5901999,34.82096 11.7277999,39.67206 13.1345999,44.22516 C14.5413999,48.77846 17.1650999,52.86076 20.7216999,56.03286 L20.7192999,56.03306 Z M67.6637719,36.49646 C67.6589999,40.64576 66.7790999,44.74806 65.0819999,48.53436 C63.3848999,52.32126 60.9091999,55.70716 57.8152999,58.47246 L55.6397999,56.03926 L55.6397999,56.03986 C59.2023999,52.86496 61.8287999,48.77666 63.2362999,44.21706 C64.6436999,39.65756 64.7777999,34.80006 63.6238999,30.16986 C62.4705999,25.53976 60.0729999,21.31286 56.6910999,17.94666 L58.9965999,15.63666 C61.7507999,18.36636 63.9350999,21.61586 65.4227999,25.19706 C66.9105999,28.77826 67.6722999,32.61866 67.6637719,36.49646 L67.6637719,36.49646 Z M55.1537999,40.83986 C56.6805999,34.86116 54.9479999,28.51996 50.5929999,24.14846 L52.9060999,21.84636 C58.0729999,27.03256 60.1277999,34.55566 58.3153999,41.64846 L55.1537999,40.83986 Z M25.8705999,24.05296 C23.5924999,26.30426 21.9753999,29.13646 21.1954999,32.24276 C20.4157999,35.34896 20.5031999,38.60906 21.4484999,41.66926 L18.3310999,42.63666 C17.2086999,39.00596 17.1043999,35.13746 18.0292999,31.45196 C18.9540999,27.76586 20.8720999,24.40506 23.5749999,21.73416 L25.8705999,24.05296 Z M38.1834999,24.4224569 C42.1975999,24.42356 45.9489999,26.41966 48.1926999,29.74776 L45.4891999,31.57536 C43.8422999,29.12716 41.0781999,27.66616 38.1268999,27.68536 C35.1757999,27.70406 32.4307999,29.19996 30.8147999,31.66976 L28.0885999,29.87606 C30.3171999,26.47096 34.1133999,24.41956 38.1834999,24.4224569 Z M38.7988999,17.18786 C45.1895999,17.17216 51.2731999,14.44466 55.5365999,9.68396 L56.5155999,8.59363 L55.5365999,7.50326 C51.2828999,2.72975 45.1928999,0 38.7988999,0 C32.4048999,0 26.3151999,2.72975 22.0611999,7.50326 L21.0820999,8.59363 L22.0611999,9.68396 C26.3246999,14.44466 32.4082999,17.17206 38.7988999,17.18786 Z M38.7848999,3.2782 C40.1945999,3.2782 41.5460999,3.83767 42.5426999,4.83426 C43.5392999,5.83081 44.0993999,7.18223 44.0999999,8.59208 C44.0999999,10.00126 43.5404999,11.35326 42.5438999,12.34986 C41.5472999,13.34706 40.1958999,13.9071605 38.7860999,13.9071605 C37.3768999,13.90776 36.0248999,13.34766 35.0282999,12.35166 C34.0310999,11.35516 33.4709999,10.00376 33.4709999,8.59387 C33.4715999,7.18472 34.0321999,5.83384 35.0282999,4.83725 C36.0247999,3.84012 37.3755999,3.27999 38.7848999,3.27835 L38.7848999,3.2782 Z M46.5299999,12.27616 C47.6401999,9.94626 47.6401999,7.23922 46.5299999,4.90871 C48.5678999,5.81085 50.4357999,7.05735 52.0499999,8.59357 C50.4357999,10.12976 48.5678999,11.37566 46.5299999,12.27786 L46.5299999,12.27616 Z M31.0334999,4.92333 L31.0334999,4.92391 C29.9320999,7.24562 29.9320999,9.93926 31.0334999,12.26176 C29.0089999,11.36136 27.1533999,10.12056 25.5477999,8.59371 C27.1533999,7.06629 29.0088999,5.82547 31.0334999,4.92511 L31.0334999,4.92333 Z" id="Shape"></path>
        </g>
    </g>
</svg>