<svg width="53" height="52" viewBox="0 0 53 52" fill="none" xmlns="http://www.w3.org/2000/svg">
<circle cx="26.6486" cy="25.7267" r="25.7267" fill="#917D52" fill-opacity="0.2"/>
<path d="M31.12 15H21.88C20.3205 15 18.8249 15.6195 17.7222 16.7222C16.6195 17.8249 16 19.3205 16 20.88V30.12C16 31.6795 16.6195 33.1751 17.7222 34.2778C18.8249 35.3805 20.3205 36 21.88 36H31.12C32.6795 36 34.1751 35.3805 35.2778 34.2778C36.3805 33.1751 37 31.6795 37 30.12V20.88C37 19.3205 36.3805 17.8249 35.2778 16.7222C34.1751 15.6195 32.6795 15 31.12 15ZM26.5 30.54C25.5032 30.54 24.5287 30.2444 23.6999 29.6906C22.8711 29.1368 22.2251 28.3497 21.8436 27.4287C21.4622 26.5078 21.3624 25.4944 21.5568 24.5167C21.7513 23.5391 22.2313 22.641 22.9362 21.9362C23.641 21.2313 24.5391 20.7513 25.5167 20.5568C26.4944 20.3624 27.5078 20.4622 28.4287 20.8436C29.3497 21.2251 30.1368 21.8711 30.6906 22.6999C31.2444 23.5287 31.54 24.5032 31.54 25.5C31.54 26.8367 31.009 28.1186 30.0638 29.0638C29.1186 30.009 27.8367 30.54 26.5 30.54ZM31.96 21.3C31.7108 21.3 31.4672 21.2261 31.26 21.0877C31.0528 20.9492 30.8913 20.7524 30.7959 20.5222C30.7005 20.2919 30.6756 20.0386 30.7242 19.7942C30.7728 19.5498 30.8928 19.3253 31.069 19.149C31.2453 18.9728 31.4698 18.8528 31.7142 18.8042C31.9586 18.7556 32.2119 18.7805 32.4422 18.8759C32.6724 18.9713 32.8692 19.1328 33.0077 19.34C33.1461 19.5472 33.22 19.7908 33.22 20.04C33.22 20.3742 33.0872 20.6947 32.851 20.931C32.6147 21.1673 32.2942 21.3 31.96 21.3Z" fill="#8E8861"/>
</svg>
