<svg width="53" height="52" viewBox="0 0 53 52" fill="none" xmlns="http://www.w3.org/2000/svg">
<circle cx="26.3517" cy="25.7267" r="25.7267" fill="#917D52" fill-opacity="0.2"/>
<path d="M38.6473 19.4605L35.1787 23.1246C34.4896 31.6337 27.7134 38.2438 19.6164 38.2438C17.951 38.2438 16.5728 37.9638 15.5277 37.416C14.6893 36.9656 14.3447 36.4908 14.2528 36.3448C14.1768 36.2224 14.1278 36.0834 14.1095 35.9381C14.0912 35.7929 14.1041 35.6452 14.1471 35.5059C14.1902 35.3667 14.2623 35.2395 14.3582 35.134C14.454 35.0284 14.5711 34.9471 14.7008 34.8961C14.7237 34.884 17.4342 33.7884 19.1914 31.6824C18.1017 30.86 17.1438 29.8571 16.3546 28.7121C14.7811 26.4479 13.1158 22.516 14.115 16.6485C14.1464 16.4741 14.2217 16.3119 14.3329 16.179C14.4441 16.0462 14.587 15.9476 14.7467 15.8938C14.9069 15.8382 15.0784 15.8303 15.2424 15.8711C15.4065 15.9119 15.5568 15.9998 15.677 16.125C15.7114 16.1737 19.536 20.1666 24.2104 21.4569V20.7143C24.2149 19.9422 24.3629 19.1786 24.6459 18.4671C24.9288 17.7555 25.3412 17.1101 25.8595 16.5675C26.3779 16.0249 26.9919 15.5958 27.6667 15.3048C28.3415 15.0137 29.0637 14.8664 29.7922 14.8712C30.7483 14.8857 31.6846 15.1624 32.5099 15.6744C33.3351 16.1864 34.0211 16.9162 34.5011 17.7928H37.9926C38.174 17.7922 38.3515 17.8485 38.5027 17.9546C38.654 18.0608 38.7722 18.212 38.8425 18.3893C38.9087 18.5691 38.9255 18.7652 38.8909 18.9548C38.8564 19.1444 38.7719 19.3197 38.6473 19.4605Z" fill="#8E8861"/>
</svg>
