<svg width="53" height="52" viewBox="0 0 53 52" fill="none" xmlns="http://www.w3.org/2000/svg">
<g filter="url(#filter0_b_693_1146)">
<circle cx="26.3527" cy="25.7267" r="25.7267" fill="#1D1F2C"/>
<circle cx="26.3527" cy="25.7267" r="25.2267" stroke="#3A3D53"/>
</g>
<path d="M38.6482 19.4605L35.1797 23.1246C34.4906 31.6337 27.7144 38.2438 19.6174 38.2438C17.952 38.2438 16.5738 37.9638 15.5287 37.416C14.6902 36.9656 14.3457 36.4908 14.2538 36.3448C14.1778 36.2224 14.1288 36.0834 14.1105 35.9381C14.0922 35.7929 14.1051 35.6452 14.1481 35.5059C14.1912 35.3667 14.2633 35.2395 14.3592 35.134C14.455 35.0284 14.5721 34.9471 14.7017 34.8961C14.7247 34.884 17.4352 33.7884 19.1924 31.6824C18.1026 30.86 17.1448 29.8571 16.3556 28.7121C14.7821 26.4479 13.1168 22.516 14.116 16.6485C14.1474 16.4741 14.2227 16.3119 14.3339 16.179C14.445 16.0462 14.588 15.9476 14.7477 15.8938C14.9078 15.8382 15.0793 15.8303 15.2434 15.8711C15.4075 15.9119 15.5578 15.9998 15.678 16.125C15.7124 16.1737 19.537 20.1666 24.2114 21.4569V20.7143C24.2159 19.9422 24.3639 19.1786 24.6468 18.4671C24.9298 17.7555 25.3422 17.1101 25.8605 16.5675C26.3788 16.0249 26.9929 15.5958 27.6677 15.3048C28.3425 15.0137 29.0647 14.8664 29.7932 14.8712C30.7493 14.8857 31.6856 15.1624 32.5108 15.6744C33.3361 16.1864 34.0221 16.9162 34.5021 17.7928H37.9936C38.175 17.7922 38.3525 17.8485 38.5037 17.9546C38.655 18.0608 38.7732 18.212 38.8435 18.3893C38.9097 18.5691 38.9265 18.7652 38.8919 18.9548C38.8574 19.1444 38.7729 19.3197 38.6482 19.4605Z" fill="#777EAF"/>
<defs>
<filter id="filter0_b_693_1146" x="-93.374" y="-94" width="239.454" height="239.454" filterUnits="userSpaceOnUse" color-interpolation-filters="sRGB">
<feFlood flood-opacity="0" result="BackgroundImageFix"/>
<feGaussianBlur in="BackgroundImage" stdDeviation="47"/>
<feComposite in2="SourceAlpha" operator="in" result="effect1_backgroundBlur_693_1146"/>
<feBlend mode="normal" in="SourceGraphic" in2="effect1_backgroundBlur_693_1146" result="shape"/>
</filter>
</defs>
</svg>
